<?xml version="1.0" encoding="UTF-8" standalone="no"?>
<!-- Created with Inkscape (http://www.inkscape.org/) -->

<svg
   xmlns:dc="http://purl.org/dc/elements/1.1/"
   xmlns:cc="http://creativecommons.org/ns#"
   xmlns:rdf="http://www.w3.org/1999/02/22-rdf-syntax-ns#"
   xmlns:svg="http://www.w3.org/2000/svg"
   xmlns="http://www.w3.org/2000/svg"
   xmlns:xlink="http://www.w3.org/1999/xlink"
   xmlns:sodipodi="http://sodipodi.sourceforge.net/DTD/sodipodi-0.dtd"
   xmlns:inkscape="http://www.inkscape.org/namespaces/inkscape"
   width="48"
   height="48"
   id="svg2"
   version="1.1"
   inkscape:version="0.48.2 r9819"
   sodipodi:docname="lion.svg"
   inkscape:export-filename="C:\cygwin\home\jason\src\bigearth\html\unit_images\lion.png"
   inkscape:export-xdpi="90"
   inkscape:export-ydpi="90">
  <defs
     id="defs4">
    <linearGradient
       id="linearGradient4005">
      <stop
         style="stop-color:#be8504;stop-opacity:1;"
         offset="0"
         id="stop4007" />
      <stop
         style="stop-color:#fde5af;stop-opacity:1;"
         offset="1"
         id="stop4009" />
    </linearGradient>
    <linearGradient
       id="linearGradient3988">
      <stop
         style="stop-color:#b98a20;stop-opacity:1;"
         offset="0"
         id="stop3990" />
      <stop
         style="stop-color:#966903;stop-opacity:1;"
         offset="1"
         id="stop3992" />
    </linearGradient>
    <radialGradient
       inkscape:collect="always"
       xlink:href="#linearGradient3988"
       id="radialGradient3994"
       cx="27.6583"
       cy="16.349901"
       fx="27.6583"
       fy="16.349901"
       r="10.857511"
       gradientTransform="matrix(1,0,0,1.1869433,0,-3.5191606)"
       gradientUnits="userSpaceOnUse" />
    <linearGradient
       inkscape:collect="always"
       xlink:href="#linearGradient4005"
       id="linearGradient4011"
       x1="33.13855"
       y1="10.707756"
       x2="33.661217"
       y2="4.270256"
       gradientUnits="userSpaceOnUse" />
  </defs>
  <sodipodi:namedview
     id="base"
     pagecolor="#ffffff"
     bordercolor="#666666"
     borderopacity="1.0"
     inkscape:pageopacity="0.0"
     inkscape:pageshadow="2"
     inkscape:zoom="16"
     inkscape:cx="11.751472"
     inkscape:cy="30.696925"
     inkscape:document-units="px"
     inkscape:current-layer="layer5"
     showgrid="false"
     inkscape:window-width="1680"
     inkscape:window-height="994"
     inkscape:window-x="-4"
     inkscape:window-y="-4"
     inkscape:window-maximized="1" />
  <metadata
     id="metadata7">
    <rdf:RDF>
      <cc:Work
         rdf:about="">
        <dc:format>image/svg+xml</dc:format>
        <dc:type
           rdf:resource="http://purl.org/dc/dcmitype/StillImage" />
        <dc:title></dc:title>
      </cc:Work>
    </rdf:RDF>
  </metadata>
  <g
     inkscape:groupmode="layer"
     id="layer4"
     inkscape:label="Torso">
    <path
       style="fill:#614402;fill-opacity:1;stroke:#000000;stroke-width:0.5;stroke-linecap:butt;stroke-linejoin:miter;stroke-miterlimit:4;stroke-opacity:1;stroke-dasharray:none"
       d="M 4.065864,36.951457 C 3.0440564,36.697268 1.5311251,35.729825 0.9676444,36.508178 c 0.2070295,1.479748 1.0189471,1.979143 2.1979176,2.252192 1.1031171,0.229089 2.1094032,-0.282972 2.5359436,-0.651764"
       id="path3964"
       inkscape:connector-curvature="0"
       sodipodi:nodetypes="cccc" />
    <path
       style="fill:#c4962a;stroke:#000000;stroke-width:0.50000000000000000;stroke-linecap:butt;stroke-linejoin:miter;stroke-opacity:1;stroke-miterlimit:4;stroke-dasharray:none;fill-opacity:1"
       d="m 4.2868349,22.986098 c 0,0 0.073652,5.156355 0.044187,7.513562 -0.02946,2.356838 -0.220964,6.628573 -0.220964,6.628573 l 1.546796,0.928078 0.311948,-6.718625 -0.1351713,-6.937375"
       id="path3962"
       inkscape:connector-curvature="0"
       sodipodi:nodetypes="cscccc" />
    <path
       style="fill:#dfbb66;fill-opacity:1;stroke:#000000;stroke-width:0.5;stroke-linecap:butt;stroke-linejoin:miter;stroke-miterlimit:4;stroke-opacity:1;stroke-dasharray:none"
       d="m 3.6586792,37.92588 c -0.2218873,1.314491 0.082718,2.429665 1.3611291,2.467554 1.1082567,0.03285 2.6536853,0.945652 3.4069235,-0.137243 0.2289575,-0.964272 -0.6754309,-1.329066 -0.5371906,-2.273173 0.3527734,-2.409254 2.6131858,-2.879362 3.5900338,-4.900733 1.050569,-2.17392 2.087715,-4.443201 3.072723,-6.650107 0.487523,-1.589157 0.703763,-2.996596 0.634472,-4.618313 -4.024986,-1.376913 -5.9135895,1.83322 -6.7120561,4.680903 -1.3408852,4.782186 -3.2456172,7.130953 -4.8160347,11.431112 z"
       id="path3915"
       inkscape:connector-curvature="0"
       sodipodi:nodetypes="cscssccsc" />
    <path
       style="fill:#e2c276;fill-opacity:1;stroke:#000000;stroke-width:0.40000001;stroke-linecap:butt;stroke-linejoin:miter;stroke-miterlimit:4;stroke-opacity:1;stroke-dasharray:none"
       d="M 21.655145,9.3742922 C 19.008122,10.202442 16.010154,9.733121 13.278157,9.8589065 11.316817,9.5124544 8.4346866,10.978068 7.018626,12.21819 c -1.5339975,1.165815 -2.2594307,1.844082 -3.2241782,3.525837 -0.8940872,1.558579 -0.4152423,3.495877 -0.5527304,5.234835 0.4161856,3.223068 3.839047,4.924647 4.3614875,8.119831 0.3908037,2.390109 1.9877274,4.340884 2.6278981,6.713048 0.430793,1.596311 -0.3755802,2.615451 0.750461,4.374734 1.43384,0.273566 3.881008,1.235911 5.176832,0.340201 1.185322,-1.558266 -0.844341,-2.420962 -1.869153,-3.170612 -1.170329,-1.060668 -1.397314,-2.714514 -1.264159,-4.238464 0.220623,-2.525018 0.750186,-5.158084 0.07902,-7.601466 -0.298509,-1.086724 -1.795779,-4.051977 0.158592,-2.82884 1.955326,1.237608 4.707293,3.324381 7.008347,3.82231 1.794555,-5.235432 0.606697,-12.306056 1.384102,-17.1353118 z"
       id="path3904"
       inkscape:connector-curvature="0"
       sodipodi:nodetypes="cccscsscccssccc" />
    <path
       style="fill:#dfbb66;stroke:#000000;stroke-width:0.50000000000000000;stroke-linecap:butt;stroke-linejoin:miter;stroke-opacity:1;stroke-miterlimit:4;stroke-dasharray:none;fill-opacity:1"
       d="m 27.223611,30.366525 c -0.55816,1.695482 -0.347167,3.502037 -0.257197,5.248072 0.13944,2.539178 -0.06626,3.193004 -0.175828,5.251823 1.975291,0.700576 2.951894,1.30784 4.727016,0.455023 0.805191,-1.13592 -1.205231,-1.523532 -1.458853,-2.665062 -0.257391,-1.098611 0.959596,-3.322571 0.915802,-4.409654 0.248639,-2.197698 0.980379,-3.385278 1.37559,-5.073443"
       id="path3947"
       inkscape:connector-curvature="0"
       sodipodi:nodetypes="ccccccc" />
    <path
       style="fill:#e2c276;stroke:#000000;stroke-width:0.50000000000000000;stroke-linecap:butt;stroke-linejoin:miter;stroke-opacity:1;fill-opacity:1;stroke-miterlimit:4;stroke-dasharray:none"
       d="m 18.8125,28.4375 c -0.05413,0.820512 2.086623,3.911305 3.1462,5.854588 0.365243,0.985533 0.691222,2.019337 1.388716,2.830309 0.673168,1.028459 0.886175,2.274966 1.469755,3.342837 0.833498,1.058617 2.303325,1.096299 3.537327,1.123859 0.737158,0.02088 1.474342,0.06351 2.21204,0.04529 0.779628,-0.314726 0.672904,-1.446721 0.06403,-1.879772 C 29.548233,39.232502 28.817433,38.18765 28.303812,37.128349 27.649764,35.65936 26.652066,34.297668 26.469628,32.656736 26.252278,31.70104 26.199132,30.630417 25.590607,29.827548 24.841066,29.279986 23.873529,29.635544 23.026816,29.474996 20.564533,29.034025 19.276109,28.443871 18.8125,28.4375 z"
       id="path3931"
       inkscape:connector-curvature="0"
       sodipodi:nodetypes="cccccccccccc" />
  </g>
  <g
     inkscape:groupmode="layer"
     id="layer5"
     inkscape:label="Mane">
    <path
       style="fill:url(#linearGradient4011);stroke:#000000;stroke-width:0.50000000000000000;stroke-linecap:butt;stroke-linejoin:miter;stroke-opacity:1;stroke-miterlimit:4;stroke-dasharray:none;fill-opacity:1"
       d="M 44.3125,13.8125 C 45.129435,12.582316 44.664422,10.297959 43.488317,9.3062565 41.606628,7.7195996 40.696257,5.634407 38.279902,4.7058487 34.985838,3.4400042 31.400641,3.9907094 27.962494,3.880373 24.894393,3.7819121 22.452988,6.665155 20.826052,8.52757 c 0.05243,1.945211 0.65487,0.867022 0.87823,1.74481 C 32.75628,8.5976726 37.244543,11.726949 44.3125,13.8125 z"
       id="path3996"
       inkscape:connector-curvature="0"
       sodipodi:nodetypes="csssccc" />
    <path
       style="fill:url(#radialGradient3994);stroke:#000000;stroke-width:0.50000000000000000;stroke-linecap:butt;stroke-linejoin:miter;stroke-opacity:1;stroke-miterlimit:4;stroke-dasharray:none;fill-opacity:1"
       d="m 18.875,28.0625 c 0.602733,2.648468 6.176839,3.68988 10.664371,3.330912 7.152435,-0.57214 5.680737,-8.504681 8.244468,-13.254107 2.883436,-5.341696 4.048927,-7.860227 -3.276645,-10.9607628 -4.565198,-1.9322125 -11.053959,-1.1112019 -13.56208,3.1000998 -2.316565,3.889666 -0.724588,7.272116 -1.069159,9.757185 -0.301341,2.173289 -1.362512,6.437956 -1.000955,8.026673 z"
       id="path3979"
       inkscape:connector-curvature="0"
       sodipodi:nodetypes="sssssss" />
  </g>
  <g
     inkscape:groupmode="layer"
     id="layer2"
     inkscape:label="Head"
     sodipodi:insensitive="true">
    <path
       sodipodi:nodetypes="ssssssssssssss"
       inkscape:connector-curvature="0"
       id="path3858"
       d="m 32.65625,15.25 c -0.921474,2.444501 -0.725224,4.633992 -0.680793,6.932899 0.02269,1.173851 0.913491,2.553614 1.84474,3.11472 1.683078,1.014106 2.132375,1.668727 4.276321,1.548517 1.686089,-0.09454 3.413928,-0.302965 4.092995,-0.985301 0.644621,-0.647724 -0.675926,-1.286334 -0.493541,-2.170208 0.230818,-1.118592 1.27626,-1.564598 2.258527,-1.482862 1.038732,0.08644 1.773141,-0.336202 2.166665,-1.316678 0.347739,-0.866401 0.167638,-1.872893 -0.299884,-2.522364 -0.565613,-0.785738 -0.844014,-1.397737 -0.846388,-2.677221 -0.002,-1.065717 -0.827536,-2.082034 -1.162167,-2.722617 -0.300571,-0.575381 -2.795373,-2.564365 -4.516508,-2.524667 -1.293517,0.02984 -3.369085,0.419186 -3.86399,1.205456 C 34.54713,13.055853 33.245695,13.686312 32.65625,15.25 z"
       style="fill:#ffc02a;fill-opacity:1;stroke:none" />
    <path
       style="fill:#ffdc87;fill-opacity:1;stroke:none"
       d="m 38.78125,23.03125 c -0.410642,-0.457516 -0.730235,-0.990381 -0.961677,-1.558102 -0.134341,-0.22612 -0.694035,-0.836811 -0.111709,-0.793528 0.367725,0.01837 0.736341,0.003 1.104636,0.0079 0.1487,-0.469485 0.01727,-0.965949 0.06141,-1.446671 -0.01155,-0.436788 -0.122061,-0.881464 -0.03897,-1.31414 0.321623,-0.02686 0.529854,0.377402 0.811859,0.516327 0.566013,0.394737 1.146233,0.768617 1.691033,1.192979 0.311567,0.243609 0.627685,0.567004 1.064477,0.459282 0.813551,-0.0076 1.627674,0.0027 2.441455,-0.0015 0.410757,0.229163 0.947392,0.401982 1.100908,0.89981 0.103233,0.472605 -0.372364,0.810225 -0.750625,0.97381 -0.367563,0.220214 -0.79542,0.275143 -1.215935,0.253479 -0.453942,-0.01534 -0.913384,-0.01356 -1.360482,0.05311 -0.508891,-0.04139 -0.788457,0.471995 -1.196866,0.677445 -0.541809,0.292086 -1.169983,0.140236 -1.756432,0.173607 -0.265668,-0.02598 -0.55997,0.05464 -0.805844,-0.04538 l -0.03851,-0.02439 -0.03871,-0.02402 -5e-6,-8e-6 z"
       id="path3860"
       inkscape:connector-curvature="0" />
    <path
       style="fill:#b78100;fill-opacity:1;stroke:none"
       d="m 32.65625,15.25 c -0.921474,2.444501 -0.725224,4.633992 -0.680793,6.932899 0.02269,1.173851 0.913491,2.553614 1.84474,3.11472 1.683078,1.014106 2.132375,1.668727 4.276321,1.548517 1.686089,-0.09454 0.288928,0.103285 0.967995,-0.141551 -0.02951,-0.914032 -0.04142,-1.030947 -0.08962,-1.544333 -0.178958,-1.906057 -0.640036,-2.644534 -0.974667,-3.285117 -0.300571,-0.575381 -0.885075,-1.743492 -0.985258,-3.462167 -0.07477,-1.28266 -0.701217,-2.117629 -2.05149,-3.169544 -0.722879,-0.56315 -1.717782,-1.557112 -2.307227,0.0066 z"
       id="path3868"
       inkscape:connector-curvature="0"
       sodipodi:nodetypes="cssscsssssc" />
    <path
       style="fill:none;stroke:#000000;stroke-width:0.30000001;stroke-linecap:butt;stroke-linejoin:miter;stroke-miterlimit:4;stroke-opacity:1;stroke-dasharray:none"
       d="m 32.65625,15.25 c -0.921474,2.444501 -0.725224,4.633992 -0.680793,6.932899 0.02269,1.173851 0.913491,2.553614 1.84474,3.11472 1.683078,1.014106 2.132375,1.668727 4.276321,1.548517 1.686089,-0.09454 3.413928,-0.302965 4.092995,-0.985301 0.644621,-0.647724 -0.675926,-1.286334 -0.493541,-2.170208 0.230818,-1.118592 1.27626,-1.564598 2.258527,-1.482862 1.038732,0.08644 1.773141,-0.336202 2.166665,-1.316678 0.347739,-0.866401 0.167638,-1.872893 -0.299884,-2.522364 -0.565613,-0.785738 -0.844014,-1.397737 -0.846388,-2.677221 -0.002,-1.065717 -0.827536,-2.082034 -1.162167,-2.722617 -0.300571,-0.575381 -2.795373,-2.564365 -4.516508,-2.524667 -1.293517,0.02984 -3.369085,0.419186 -3.86399,1.205456 C 34.54713,13.055853 33.245695,13.686312 32.65625,15.25 z"
       id="path3853"
       inkscape:connector-curvature="0"
       sodipodi:nodetypes="ssssssssssssss" />
    <path
       style="fill:#ffc02a;fill-opacity:1;stroke:#000000;stroke-width:0.30000001;stroke-linecap:butt;stroke-linejoin:miter;stroke-miterlimit:4;stroke-opacity:1;stroke-dasharray:none"
       d="m 32.918562,14.888151 c 0.450761,0.171691 3.061597,-0.763076 3.801881,-1.829455 0.393452,-0.566767 -0.457213,-1.397602 -1.080258,-1.758484 -1.574912,-0.912225 -3.663983,-1.3564054 -3.965806,-0.980493 -0.328963,0.409714 0.663458,4.347239 1.244183,4.568432 z"
       id="path3870"
       inkscape:connector-curvature="0"
       sodipodi:nodetypes="sssss" />
    <path
       sodipodi:nodetypes="sssss"
       inkscape:connector-curvature="0"
       id="path3901"
       d="m 33.53158,13.476537 c 0.206684,0.07873 0.997559,-0.193637 1.336996,-0.682595 0.180407,-0.259876 -0.334643,-0.734582 -0.620322,-0.900054 -0.722132,-0.418275 -1.367517,-0.621942 -1.50591,-0.449578 -0.150837,0.187863 0.522961,1.930805 0.789236,2.032227 z"
       style="fill:#000000;fill-opacity:1;stroke:none" />
  </g>
  <g
     inkscape:groupmode="layer"
     id="layer3"
     inkscape:label="Face features">
    <path
       style="fill:#473200;stroke:#000000;stroke-width:0.30000000999999998;stroke-linecap:butt;stroke-linejoin:miter;stroke-miterlimit:4;stroke-opacity:1;stroke-dasharray:none;fill-opacity:1"
       d="m 38.957069,22.53659 c -0.12715,0.475535 0.004,0.669964 -0.0069,1.185018 -0.0086,0.405603 -0.05579,0.501258 0.08843,0.996111 0.08256,0.283291 0.279404,0.606111 0.497153,0.843144 0.290723,0.316472 0.735856,0.236798 1.205192,0.251897 0.374107,0.01203 1.607977,-0.09139 2.071562,-0.134245 -0.06154,-0.664491 -0.120011,-1.265432 -0.148784,-1.769133 -0.03236,-0.566541 -0.104863,-1.029745 -0.24056,-1.637606 -0.291553,0.04732 -0.324792,0.04647 -0.673401,0.0535 -0.480037,0.0097 -0.992009,0.07939 -1.43838,-0.14411 -0.322297,-0.161372 -0.742625,-0.469671 -0.858261,-0.453518 -0.196671,0.346812 -0.400219,0.450588 -0.496037,0.808942 z"
       id="path3005"
       inkscape:connector-curvature="0"
       sodipodi:nodetypes="csssscscsscsc" />
    <path
       style="fill:#e84473;fill-opacity:1;stroke:#000000;stroke-width:0.2;stroke-linecap:butt;stroke-linejoin:miter;stroke-miterlimit:4;stroke-opacity:1;stroke-dasharray:none"
       d="m 39.96416,21.98068 c 0.10922,0.569273 0.33109,1.326941 0.722694,1.765758 0.296225,0.331939 0.440663,0.504083 0.767513,0.577468 0.270681,0.06077 0.844875,0.06697 1.117061,0.01047 0.336699,-0.06989 0.647755,-0.379092 0.643517,-0.734771 -0.0031,-0.262151 -0.260741,-0.410893 -0.423497,-0.585673 -0.218214,-0.234336 -0.537366,-0.54205 -0.802273,-0.722563 -0.228768,0.0041 -0.789157,0.08243 -1.059276,0.04873 -0.46964,-0.05859 -0.626689,-0.161439 -0.965739,-0.359416 z"
       id="path3798"
       inkscape:connector-curvature="0"
       sodipodi:nodetypes="cssssscsc" />
    <rect
       style="opacity:1;fill:#180f00;fill-opacity:1;stroke:#000000;stroke-width:0.18321452999999999;stroke-miterlimit:4;stroke-opacity:1;stroke-dasharray:none"
       id="rect3821"
       width="1.9759698"
       height="2.0115056"
       x="47.485229"
       y="-8.0883703"
       transform="matrix(0.8499816,0.52681237,-0.51427367,0.85762614,0,0)" />
    <rect
       style="opacity:1;fill:#180f00;fill-opacity:1;stroke:#000000;stroke-width:0.20000000000000001;stroke-miterlimit:4;stroke-opacity:1;stroke-dasharray:none"
       id="rect3823"
       width="0.42410713"
       height="1.5625"
       x="44.910713"
       y="20.589285" />
    <path
       transform="translate(-0.04464286,-0.13392857)"
       style="opacity:1;fill:#180f00;fill-opacity:1;stroke:#000000;stroke-width:0.20000000000000001;stroke-miterlimit:4;stroke-opacity:1"
       d="m 41.562498,15.678572 c 0,0.480783 -0.54965,0.870535 -1.227678,0.870535 -0.678028,0 -1.227679,-0.389752 -1.227679,-0.870535 0.735592,-0.148227 1.719474,-0.122046 2.455357,0 z"
       id="path3825"
       inkscape:connector-curvature="0"
       sodipodi:nodetypes="cscc" />
    <path
       style="opacity:1;fill:#180f00;fill-opacity:1;stroke:#000000;stroke-width:0.13399190000000000;stroke-miterlimit:4;stroke-opacity:1"
       d="m 45.013031,14.316365 c -0.107864,0.839169 -0.586114,1.002099 -1.296506,1.012457 0.116358,-0.428462 0.615424,-0.937523 1.296506,-1.012457 z"
       id="path3825-1"
       inkscape:connector-curvature="0"
       sodipodi:nodetypes="ccc" />
  </g>
  <g
     inkscape:label="RefImage"
     inkscape:groupmode="layer"
     id="layer1"
     transform="translate(0,-1004.3622)"
     sodipodi:insensitive="true"
     style="display:none">
    <image
       y="1007.3292"
       x="-1.8870199"
       id="image3001"
       xlink:href="file:///C:/cygwin/home/jason/src/bigearth/html/unit_images/ref_lion.jpeg"
       height="35.616558"
       width="53.522152"
       style="opacity:0.52999998" />
  </g>
</svg>
