<?xml version="1.0" encoding="UTF-8" standalone="no"?>
<!-- Created with Inkscape (http://www.inkscape.org/) -->

<svg
   xmlns:dc="http://purl.org/dc/elements/1.1/"
   xmlns:cc="http://creativecommons.org/ns#"
   xmlns:rdf="http://www.w3.org/1999/02/22-rdf-syntax-ns#"
   xmlns:svg="http://www.w3.org/2000/svg"
   xmlns="http://www.w3.org/2000/svg"
   xmlns:sodipodi="http://sodipodi.sourceforge.net/DTD/sodipodi-0.dtd"
   xmlns:inkscape="http://www.inkscape.org/namespaces/inkscape"
   width="22"
   height="22"
   id="svg3867"
   version="1.1"
   inkscape:version="0.48.2 r9819"
   sodipodi:docname="pig_work.svg"
   inkscape:export-filename="C:\cygwin\home\jason\src\bigearth\html\resource_icons\pig_work.png"
   inkscape:export-xdpi="90"
   inkscape:export-ydpi="90">
  <defs
     id="defs3869" />
  <sodipodi:namedview
     id="base"
     pagecolor="#ffffff"
     bordercolor="#666666"
     borderopacity="1.0"
     inkscape:pageopacity="0.0"
     inkscape:pageshadow="2"
     inkscape:zoom="15.839192"
     inkscape:cx="11.813752"
     inkscape:cy="13.147123"
     inkscape:document-units="px"
     inkscape:current-layer="layer1"
     showgrid="false"
     inkscape:window-width="862"
     inkscape:window-height="731"
     inkscape:window-x="731"
     inkscape:window-y="158"
     inkscape:window-maximized="0" />
  <metadata
     id="metadata3872">
    <rdf:RDF>
      <cc:Work
         rdf:about="">
        <dc:format>image/svg+xml</dc:format>
        <dc:type
           rdf:resource="http://purl.org/dc/dcmitype/StillImage" />
        <dc:title></dc:title>
      </cc:Work>
    </rdf:RDF>
  </metadata>
  <g
     inkscape:label="Layer 1"
     inkscape:groupmode="layer"
     id="layer1"
     transform="translate(0,-1030.3622)">
    <path
       style="font-size:medium;font-style:normal;font-variant:normal;font-weight:normal;font-stretch:normal;text-indent:0;text-align:start;text-decoration:none;line-height:normal;letter-spacing:normal;word-spacing:normal;text-transform:none;direction:ltr;block-progression:tb;writing-mode:lr-tb;text-anchor:start;baseline-shift:baseline;color:#000000;fill:#efaad9;fill-opacity:1;stroke:#000000;stroke-width:0.32855499;stroke-miterlimit:4;stroke-opacity:1;stroke-dasharray:none;marker:none;visibility:visible;display:inline;overflow:visible;enable-background:accumulate;font-family:Sans;-inkscape-font-specification:Sans"
       d="m 0.30038446,1036.7202 -0.0256682,0.8214 c 0.39692983,0.01 0.6063051,0.2334 0.84705574,0.4107 -0.06638,0.1315 -0.18103104,0.2365 -0.20534684,0.385 -0.018783,0.1147 -0.087194,0.3008 -0.1026733,0.5133 -0.015478,0.2126 0.030225,0.4922 0.23101534,0.7187 0.107752,0.1216 0.2746751,0.2036 0.4363621,0.2054 0.1616869,0 0.2905629,-0.042 0.3850253,-0.103 0.1889249,-0.1197 0.3025152,-0.2693 0.3850254,-0.4106 0.1397717,-0.2392 0.2322354,-0.528 0.2310152,-0.8214 -6.324e-4,-0.1521 -0.1207103,-0.2847 -0.1796785,-0.4364 0.5980564,0.1009 1.1578866,0.4948 1.7197799,0.9498 l 0.5133672,-0.6418 c -0.578807,-0.4688 -1.2478674,-1.031 -2.1561421,-1.155 -0.2241397,-0.031 -0.399949,0.098 -0.5903721,0.1796 -0.4545432,-0.3686 -0.89867324,-0.6011 -1.48876478,-0.616 z"
       id="path3912"
       inkscape:connector-curvature="0" />
    <path
       style="fill:#4d3646;fill-opacity:1;stroke:#000000;stroke-width:0.5749712;stroke-linecap:butt;stroke-linejoin:miter;stroke-miterlimit:4;stroke-opacity:1;stroke-dasharray:none"
       d="m 15.349375,1043.2955 c -0.18371,1.2229 0.328262,2.4028 1.161369,3.2751 0.578475,0.8218 1.697133,1.6994 2.726169,1.2522 0.782253,-0.7579 -0.615724,-1.1048 -0.966795,-1.6381 -0.84771,-0.9674 -1.105538,-2.2698 -1.613585,-3.414 l -0.02372,-0.1711"
       id="path4451"
       inkscape:connector-curvature="0" />
    <path
       style="fill:#4d3646;fill-opacity:1;stroke:#000000;stroke-width:0.5749712;stroke-linecap:butt;stroke-linejoin:miter;stroke-miterlimit:4;stroke-opacity:1;stroke-dasharray:none"
       d="m 6.6221343,1043.9922 c -0.04434,1.1263 0.3416148,2.23 0.9157435,3.1858 0.3095016,0.3491 0.8282048,0.3196 1.2424289,0.2212 0.3111887,-0.1191 0.6437625,-0.046 0.9661023,-0.067 0.1917979,0 0.442653,-0.1192 0.410523,-0.3468 -0.0708,-0.3647 -0.3870861,-0.609 -0.6269187,-0.8669 -0.2963057,-0.2887 -0.5753112,-0.6149 -0.6999548,-1.0168 -0.2767895,-0.6925 -0.4197513,-1.4754 -0.9611754,-2.0265"
       id="path4438"
       inkscape:connector-curvature="0" />
    <path
       style="fill:#efaad9;fill-opacity:1;stroke:#000000;stroke-width:0.5749712;stroke-linecap:butt;stroke-linejoin:miter;stroke-miterlimit:4;stroke-opacity:1;stroke-dasharray:none"
       d="m 2.7352115,1041.3521 c -0.3544813,-3.0622 2.1267863,-6.7042 5.4940325,-6.0811 2.448783,0.4115 4.57879,1.995 7.150597,1.7733 2.541357,0.2562 3.440191,3.4172 2.850387,5.5631 -0.308351,2.1641 -2.841161,1.1784 -3.720591,2.682 -0.328618,0.043 -0.0089,1.2168 0.604519,1.9937 0.32558,0.4125 1.348944,0.9688 1.356261,1.1452 0.03279,0.7905 -2.409636,0.2183 -2.565271,0.231 -0.298147,0.025 -1.157605,-3.0349 -1.317849,-3.0176 -1.793161,0.193 -3.0162271,-0.089 -4.2031562,-1.516 -1.257469,0.59 -3.5963902,0.7499 -2.4453408,2.8558 0.338612,0.4642 1.4435471,0.8894 1.3570878,1.296 -0.1861953,0.876 -2.1627879,1.3993 -2.919963,0.1632 -0.9165425,-1.696 -0.5825694,-3.7457 -1.39104,-5.4994 -0.1450395,-0.517 -0.2540437,-1.0499 -0.2496733,-1.5892 z"
       id="path3875"
       inkscape:connector-curvature="0"
       sodipodi:nodetypes="cccccssssccsccc" />
    <path
       style="fill:#efaad9;fill-opacity:1;stroke:#000000;stroke-width:0.5749712;stroke-linecap:butt;stroke-linejoin:miter;stroke-miterlimit:4;stroke-opacity:1;stroke-dasharray:none"
       d="m 16.889479,1034.825 c -0.158849,-0.535 0.12307,-1.1965 0.773281,-0.8966 0.657775,0.1676 1.488759,-0.108 2.035251,0.3216 0.276593,0.6708 -0.694231,0.3206 -1.050026,0.3889 -0.575057,0.054 -0.377631,1.0546 -1.099339,0.936 -0.359816,-0.02 -0.748391,-0.3649 -0.659167,-0.7499 z"
       id="path3897"
       inkscape:connector-curvature="0" />
    <path
       style="fill:#efaad9;fill-opacity:1;stroke:#000000;stroke-width:0.5749712;stroke-linecap:butt;stroke-linejoin:miter;stroke-miterlimit:4;stroke-opacity:1;stroke-dasharray:none"
       d="m 18.319572,1035.3016 c -0.682257,-0.6329 -1.827129,-0.6202 -2.531288,-0.03 -1.009758,-0.7391 -2.683109,-0.4565 -3.246641,0.7083 -0.356731,0.7357 -0.09119,1.5608 -0.168415,2.3383 0.0032,0.4111 -0.04045,0.8575 0.121885,1.2398 0.41433,0.6112 0.632885,1.4682 1.396209,1.7451 1.123521,0.4186 2.334424,0.1658 3.499401,0.2261 1.302358,-0.1838 2.307508,-1.1078 3.451519,-1.6714 0.503122,-0.3239 0.923476,-1.0041 0.617945,-1.5943 -0.299942,-0.5001 -0.951053,-0.5752 -1.480291,-0.5292 -0.645824,-0.1166 -0.556861,-0.9321 -0.96093,-1.3038 -0.275225,-0.314 -0.339201,-0.9518 -0.699394,-1.1293 z"
       id="path3884"
       inkscape:connector-curvature="0" />
    <path
       style="fill:#efaad9;fill-opacity:1;stroke:#000000;stroke-width:0.65710998;stroke-linecap:butt;stroke-linejoin:miter;stroke-miterlimit:4;stroke-opacity:1;stroke-dasharray:none"
       d="m 11.352447,1034.1649 c -0.186338,-0.098 -0.450618,-0.057 -0.550232,0.1437 -0.16743,0.2872 -0.02867,0.7304 0.314962,0.804 0.203264,0.083 0.34732,0.289 0.52905,0.419 0.430768,0.3705 0.865488,0.7381 1.264071,1.1438 0.177022,0.1091 0.442237,0.1532 0.593927,-0.023 0.220011,-0.2654 0.230295,-0.6368 0.222034,-0.9657 -0.03176,-0.3743 -0.09709,-0.761 -0.311167,-1.0789 -0.197151,-0.3164 -0.553074,-0.5936 -0.945775,-0.5259 -0.192616,0.043 -0.379531,0.158 -0.583254,0.088 -0.173693,-0.035 -0.367418,-0.103 -0.533616,-0.01 z"
       id="path3895"
       inkscape:connector-curvature="0" />
    <path
       sodipodi:type="arc"
       style="fill:#fb546a;fill-opacity:1;stroke:#000000;stroke-width:0.30000001;stroke-miterlimit:4;stroke-opacity:1;stroke-dasharray:none"
       id="path4459"
       sodipodi:cx="21.25"
       sodipodi:cy="6.1964283"
       sodipodi:rx="1.2946428"
       sodipodi:ry="1.3392857"
       d="m 22.544643,6.1964283 a 1.2946428,1.3392857 0 1 1 -2.589286,0 1.2946428,1.3392857 0 1 1 2.589286,0 z"
       transform="matrix(0.9775831,0,0,0.90392754,-0.18058473,1033.2391)" />
    <path
       sodipodi:type="arc"
       style="fill:#4d020c;fill-opacity:1;stroke:#000000;stroke-width:0.30000001;stroke-miterlimit:4;stroke-opacity:1;stroke-dasharray:none"
       id="path4461"
       sodipodi:cx="15.262277"
       sodipodi:cy="4.1261158"
       sodipodi:rx="0.46316963"
       sodipodi:ry="0.45200893"
       d="m 15.725446,4.1261158 a 0.46316963,0.45200893 0 1 1 -0.926339,0 0.46316963,0.45200893 0 1 1 0.926339,0 z"
       transform="matrix(0.82138746,0,0,0.82138746,3.0652333,1033.4388)" />
    <path
       transform="matrix(0.82138746,0,0,0.82138746,5.4899766,1033.3974)"
       sodipodi:type="arc"
       style="fill:#4d020c;fill-opacity:1;stroke:#000000;stroke-width:0.30000001;stroke-miterlimit:4;stroke-opacity:1;stroke-dasharray:none"
       id="path4461-1"
       sodipodi:cx="15.262277"
       sodipodi:cy="4.1261158"
       sodipodi:rx="0.46316963"
       sodipodi:ry="0.45200893"
       d="m 15.725446,4.1261158 a 0.46316963,0.45200893 0 1 1 -0.926339,0 0.46316963,0.45200893 0 1 1 0.926339,0 z" />
    <path
       style="fill:#4d020c;fill-opacity:1;stroke:#000000;stroke-width:0.24641626;stroke-miterlimit:4;stroke-opacity:1;stroke-dasharray:none"
       d="m 20.189695,1039.9952 c -0.587397,-0.1201 -1.17533,-0.3484 -1.784185,-0.2452 -0.42355,-0.08 -0.985416,-0.083 -1.073533,0.4552 -0.251938,0.3799 -0.03202,0.8888 0.450643,0.8742 0.616644,0.032 1.243428,0.04 1.844158,-0.1308 0.527606,0.061 0.598891,-0.5189 0.548922,-0.8968 l 0.01399,-0.057 -10e-7,0 z"
       id="path4481"
       inkscape:connector-curvature="0" />
  </g>
</svg>
