<?xml version="1.0" encoding="UTF-8" standalone="no"?>
<!-- Created with Inkscape (http://www.inkscape.org/) -->

<svg
   xmlns:dc="http://purl.org/dc/elements/1.1/"
   xmlns:cc="http://creativecommons.org/ns#"
   xmlns:rdf="http://www.w3.org/1999/02/22-rdf-syntax-ns#"
   xmlns:svg="http://www.w3.org/2000/svg"
   xmlns="http://www.w3.org/2000/svg"
   xmlns:xlink="http://www.w3.org/1999/xlink"
   xmlns:sodipodi="http://sodipodi.sourceforge.net/DTD/sodipodi-0.dtd"
   xmlns:inkscape="http://www.inkscape.org/namespaces/inkscape"
   width="22"
   height="22"
   id="svg2"
   version="1.1"
   inkscape:version="0.48.2 r9819"
   sodipodi:docname="sheep_work.svg"
   inkscape:export-filename="C:\cygwin\home\jason\src\bigearth\html\resource_icons\sheep_work.png"
   inkscape:export-xdpi="90"
   inkscape:export-ydpi="90">
  <defs
     id="defs4">
    <linearGradient
       id="linearGradient3817">
      <stop
         id="stop3827"
         offset="0"
         style="stop-color:#ffffff;stop-opacity:1;" />
      <stop
         style="stop-color:#e4dcc0;stop-opacity:1;"
         offset="1"
         id="stop3821" />
    </linearGradient>
    <linearGradient
       id="linearGradient3809">
      <stop
         style="stop-color:#e4dcc0;stop-opacity:1;"
         offset="0"
         id="stop3811" />
      <stop
         style="stop-color:#6a5d4a;stop-opacity:1;"
         offset="1"
         id="stop3813" />
    </linearGradient>
    <linearGradient
       inkscape:collect="always"
       xlink:href="#linearGradient3809"
       id="linearGradient3815"
       x1="2.2456899"
       y1="1037.0811"
       x2="0.57075566"
       y2="1038.8221"
       gradientUnits="userSpaceOnUse" />
    <radialGradient
       inkscape:collect="always"
       xlink:href="#linearGradient3817"
       id="radialGradient3823"
       cx="8.4237614"
       cy="1037.9003"
       fx="8.4237614"
       fy="1037.9003"
       r="9.4115911"
       gradientTransform="matrix(0.99996867,-0.00791585,0.00474339,0.59920809,-4.7966336,417.02081)"
       gradientUnits="userSpaceOnUse" />
    <linearGradient
       inkscape:collect="always"
       xlink:href="#linearGradient3809"
       id="linearGradient3832"
       gradientUnits="userSpaceOnUse"
       x1="2.2456899"
       y1="1037.0811"
       x2="0.57075566"
       y2="1038.8221" />
    <linearGradient
       inkscape:collect="always"
       xlink:href="#linearGradient3809"
       id="linearGradient3835"
       gradientUnits="userSpaceOnUse"
       x1="2.2456899"
       y1="1037.0811"
       x2="0.57075566"
       y2="1038.8221" />
    <linearGradient
       inkscape:collect="always"
       xlink:href="#linearGradient3809"
       id="linearGradient3838"
       gradientUnits="userSpaceOnUse"
       x1="2.2456899"
       y1="1037.0811"
       x2="0.57075566"
       y2="1038.8221" />
    <linearGradient
       inkscape:collect="always"
       xlink:href="#linearGradient3809"
       id="linearGradient3841"
       gradientUnits="userSpaceOnUse"
       x1="2.2456899"
       y1="1037.0811"
       x2="0.57075566"
       y2="1038.8221" />
    <linearGradient
       inkscape:collect="always"
       xlink:href="#linearGradient3809"
       id="linearGradient3844"
       gradientUnits="userSpaceOnUse"
       x1="2.2456899"
       y1="1037.0811"
       x2="0.57075566"
       y2="1038.8221" />
    <linearGradient
       inkscape:collect="always"
       xlink:href="#linearGradient3809"
       id="linearGradient3847"
       gradientUnits="userSpaceOnUse"
       x1="2.2456899"
       y1="1037.0811"
       x2="0.57075566"
       y2="1038.8221" />
    <linearGradient
       inkscape:collect="always"
       xlink:href="#linearGradient3809"
       id="linearGradient3850"
       gradientUnits="userSpaceOnUse"
       x1="2.2456899"
       y1="1037.0811"
       x2="0.57075566"
       y2="1038.8221" />
    <linearGradient
       inkscape:collect="always"
       xlink:href="#linearGradient3809"
       id="linearGradient3853"
       gradientUnits="userSpaceOnUse"
       x1="2.2456899"
       y1="1037.0811"
       x2="0.57075566"
       y2="1038.8221" />
    <linearGradient
       inkscape:collect="always"
       xlink:href="#linearGradient3809"
       id="linearGradient3856"
       gradientUnits="userSpaceOnUse"
       x1="2.2456899"
       y1="1037.0811"
       x2="0.57075566"
       y2="1038.8221" />
    <linearGradient
       inkscape:collect="always"
       xlink:href="#linearGradient3809"
       id="linearGradient3859"
       gradientUnits="userSpaceOnUse"
       x1="2.2456899"
       y1="1037.0811"
       x2="0.57075566"
       y2="1038.8221" />
    <linearGradient
       inkscape:collect="always"
       xlink:href="#linearGradient3809"
       id="linearGradient3862"
       gradientUnits="userSpaceOnUse"
       x1="2.2456899"
       y1="1037.0811"
       x2="0.57075566"
       y2="1038.8221" />
    <linearGradient
       inkscape:collect="always"
       xlink:href="#linearGradient3809"
       id="linearGradient3865"
       gradientUnits="userSpaceOnUse"
       x1="2.2456899"
       y1="1037.0811"
       x2="0.57075566"
       y2="1038.8221"
       gradientTransform="translate(0.12626907,0.50507627)" />
  </defs>
  <sodipodi:namedview
     id="base"
     pagecolor="#ffffff"
     bordercolor="#666666"
     borderopacity="1.0"
     inkscape:pageopacity="0.0"
     inkscape:pageshadow="2"
     inkscape:zoom="15.839192"
     inkscape:cx="10.896132"
     inkscape:cy="9.5879945"
     inkscape:document-units="px"
     inkscape:current-layer="layer1"
     showgrid="false"
     inkscape:window-width="907"
     inkscape:window-height="873"
     inkscape:window-x="710"
     inkscape:window-y="58"
     inkscape:window-maximized="0" />
  <metadata
     id="metadata7">
    <rdf:RDF>
      <cc:Work
         rdf:about="">
        <dc:format>image/svg+xml</dc:format>
        <dc:type
           rdf:resource="http://purl.org/dc/dcmitype/StillImage" />
        <dc:title></dc:title>
      </cc:Work>
    </rdf:RDF>
  </metadata>
  <g
     inkscape:label="Layer 1"
     inkscape:groupmode="layer"
     id="layer1"
     transform="translate(0,-1030.3622)">
    <path
       style="fill:#6d3a16;fill-opacity:1;stroke:#000000;stroke-width:0.34935203px;stroke-linecap:butt;stroke-linejoin:miter;stroke-opacity:1"
       d="m 1.632885,1046.4798 c -2.418e-4,1.1068 8.629e-4,2.2139 -0.00128,3.3205 0.05314,0.2391 0.058927,0.4908 0.157069,0.7163 0.078111,0.2257 0.2276069,0.4018 0.3947562,0.559 0.2417767,0.1502 0.5550095,0.097 0.8049541,0 0.233329,-0.02 0.5227841,-0.2158 0.3470692,-0.4691 -0.082938,-0.1572 -0.2788872,-0.2237 -0.2358977,-0.434 -0.1453588,-0.065 -0.077344,-0.302 -0.1724325,-0.4245 -0.089261,-0.2142 -0.1071597,-0.4451 -0.1908032,-0.6576 -0.1288892,-0.2255 -0.077656,-0.4853 -0.1304114,-0.7278 -0.051951,-0.3115 -0.2024836,-0.5997 -0.2312657,-0.915 -0.099844,-0.1666 -0.071147,-0.3794 -0.1452585,-0.5569 -0.075433,-0.2342 -0.1340636,-0.4791 -0.092817,-0.7257 0.048584,-0.1406 -0.029643,-0.2884 -0.1841255,-0.2448 -0.1065186,0 -0.2130372,0 -0.3195557,0"
       id="path2989"
       inkscape:connector-curvature="0" />
    <path
       style="fill:#6d3a16;fill-opacity:1;stroke:#000000;stroke-width:0.34935203px;stroke-linecap:butt;stroke-linejoin:miter;stroke-opacity:1"
       d="m 3.6812493,1044.9729 c 0.030062,0.3413 -0.06955,0.6982 0.067939,1.0256 0.021656,0.2427 0.3107088,0.3708 0.2518982,0.6109 0.1055438,0.2395 0.1406334,0.4895 0.1169218,0.7503 3.36e-5,0.764 -2.955e-4,1.528 -6.95e-5,2.292 0.1382093,0.1669 0.1144072,0.5498 0.4408505,0.4391 0.2403608,-0.083 0.449623,-0.2395 0.7014636,-0.2902 0.3067069,-0.023 0.1156984,-0.3691 0.168127,-0.5639 0.00185,-0.2776 -0.00227,-0.5551 -3.843e-4,-0.8327 -0.1245586,-0.35 -0.082036,-0.7336 -0.1962411,-1.0873 -0.039803,-0.2947 -0.108733,-0.5804 -0.2343705,-0.8519 -0.02595,-0.31 -0.1933824,-0.4791 -0.2737009,-0.753 -0.085341,-0.2924 -0.2127145,-0.5837 -0.1695818,-0.8954 -0.014184,-0.2793 0.024958,-0.5623 -0.011986,-0.8393 -0.1850679,-0.1323 -0.3853238,0.2279 -0.5298364,0.3517 -0.2016275,0.1567 -0.2312298,0.4255 -0.3310421,0.6441 z"
       id="path2991"
       inkscape:connector-curvature="0" />
    <path
       style="fill:#6d3a16;fill-opacity:1;stroke:#000000;stroke-width:0.34935203px;stroke-linecap:butt;stroke-linejoin:miter;stroke-opacity:1"
       d="m 14.733007,1045.928 c -0.0014,1.167 0.0031,2.3343 -0.0027,3.5011 0.0856,0.2363 0.05587,0.4784 0.111977,0.7142 0.04325,0.231 0.0863,0.4653 0.181003,0.6691 0.160145,0.1481 0.43656,0.1465 0.623329,0.073 0.148506,-0.1911 0.253908,-0.3926 0.209009,-0.6408 -2.62e-4,-0.752 0.0025,-1.5041 -0.0018,-2.2561 -0.07467,-0.2178 -0.04392,-0.4599 -0.151845,-0.669 -0.107649,-0.2041 -0.06601,-0.4505 -0.203681,-0.6388 -0.164322,-0.2702 -0.290431,-0.5772 -0.280676,-0.8988 -0.01422,-0.1912 -0.175567,-0.3973 -0.361103,-0.219 -0.180696,0.066 -0.141028,0.217 -0.123552,0.3654 z"
       id="path2993"
       inkscape:connector-curvature="0" />
    <path
       style="fill:#6d3a16;fill-opacity:1;stroke:#000000;stroke-width:0.34935203px;stroke-linecap:butt;stroke-linejoin:miter;stroke-opacity:1"
       d="m 15.854767,1044.4926 c 0.031,0.3626 -0.08219,0.749 0.09923,1.088 0.122412,0.2794 0.03248,0.5987 0.158989,0.8711 0.140601,0.3977 0.244905,0.8124 0.242496,1.2373 0.118303,0.4749 0.04155,0.9639 0.05953,1.4466 -0.05713,0.3052 0.269452,0.683 0.582251,0.5134 0.18053,-0.2016 0.351448,-0.4317 0.564331,-0.5645 0.169418,-0.1538 0.148471,-0.4131 0.174772,-0.6269 0.0065,-0.4443 -0.202209,-0.8518 -0.345538,-1.262 -0.12617,-0.031 -0.136396,-0.4372 -0.258134,-0.589 -0.135756,-0.5368 -0.442481,-1.0121 -0.591528,-1.5459 -0.126724,-0.2891 -0.265297,-0.5734 -0.365834,-0.8703 -0.03159,-0.3111 0.0069,-0.626 -0.0087,-0.9391 -0.01575,-0.1443 0.05202,-0.6251 -0.08313,-0.2844 -0.114008,0.2215 -0.118687,0.472 -0.162705,0.712 0.02465,0.244 -0.116499,0.4581 -0.06699,0.7027 0.0037,0.2655 -5.94e-4,0.5315 9.78e-4,0.7972"
       id="path2995"
       inkscape:connector-curvature="0" />
    <path
       style="fill:url(#linearGradient3865);fill-opacity:1;stroke:#000000;stroke-width:0.34935203px;stroke-linecap:butt;stroke-linejoin:miter;stroke-opacity:1"
       d="m 3.479513,1036.3206 c -0.428639,0.1135 -0.5224623,0.2458 -0.9459298,0.3742 -0.4130485,0.198 -0.6534893,0.482 -0.9932831,0.7656 -0.3047954,0.2544 -0.65542706,0.6595 -0.80525365,1.0231 -0.0955708,0.2319 -0.26115989,0.5039 -0.1181593,0.7466 0.12107526,0.2055 0.41589605,0.1292 0.59824995,0.034 0.3445711,-0.1799 0.5238758,-0.5398 0.8244933,-0.777 1.1920874,-0.802 1.6156722,-1.1617 1.6072934,-1.6102 l -0.066741,-0.4129 c 0.056028,-0.022 -0.1006703,-0.1434 -0.1006703,-0.1434 z"
       id="path2999"
       inkscape:connector-curvature="0"
       sodipodi:nodetypes="ccsssscccc" />
    <path
       style="fill:url(#radialGradient3823);fill-opacity:1;stroke:#000000;stroke-width:0.34935203px;stroke-linecap:butt;stroke-linejoin:miter;stroke-opacity:1"
       d="m 15.999013,1033.9074 c -0.864222,0.5872 -1.832526,0.9076 -2.820172,0.873 -2.300862,-0.081 -5.1857184,-0.1542 -7.7851573,0 -0.6883549,0.041 -1.3457453,0.4218 -1.8715286,0.7486 -0.9112884,0.5663 -1.0903037,1.4267 -1.1853015,2.433 -0.1324228,1.4028 -0.5461325,2.896 -0.7131286,3.9648 -0.243199,1.5565 -0.3977559,3.383 -0.472173,4.8023 -0.026636,0.508 -0.062056,1.139 0.2678571,1.5263 0.3084631,0.3622 0.9362532,0.051 1.2391044,-0.1157 0.3269516,-0.1802 0.8815953,-1.1221 1.2562672,-1.8806 0.1755025,-0.3553 -0.024735,-0.6888 0.2936014,-0.7486 1.9108815,-0.3588 4.0187999,0.1672 5.8501369,0.2492 1.064128,0.048 2.83034,0.2671 3.753621,0.1116 1.055494,-0.1778 1.669642,-0.2392 2.659913,-0.9615 0.771178,-0.8426 1.437418,-1.3827 1.902143,-2.3271 0.761934,-1.5485 0.655314,-1.4782 0.895698,-2.9915 0.06451,-0.4061 0.0071,-2.465 0.03548,-2.889 0.09112,-1.363 0.08329,-2.3192 -0.941657,-2.8794 -1.012129,-0.5531 -1.524874,-0.486 -2.364706,0.085 z"
       id="path3001"
       inkscape:connector-curvature="0"
       sodipodi:nodetypes="csssssssssssscsssssc" />
    <path
       style="fill:#d38c74;fill-opacity:1;stroke:#000000;stroke-width:0.15000001;stroke-linecap:butt;stroke-linejoin:miter;stroke-miterlimit:4;stroke-opacity:1;stroke-dasharray:none"
       d="m 19.989293,1031.8272 c -0.107929,0.021 -0.201868,0.066 -0.298391,0.1295 -0.08816,0.058 -0.167274,0.1178 -0.235276,0.1957 -0.07926,0.091 -0.18591,0.1549 -0.251339,0.2593 -0.07578,0.1209 -0.191611,0.2115 -0.270585,0.3298 -0.07832,0.093 -0.02982,0.2188 0.08511,0.2448 0.06857,0.044 0.146659,0.028 0.221568,0.024 0.09368,0 0.187357,0 0.281036,0 0.09689,-0.074 0.227375,0.013 0.327389,-0.036 0.09528,-0.046 0.173473,-0.1193 0.258731,-0.1827 0.06914,-0.051 0.110968,-0.1433 0.178745,-0.1921 0.06378,-0.046 0.09737,-0.1196 0.139958,-0.1821 0.05719,-0.084 0.06642,-0.1708 0.09602,-0.2622 0.105955,-0.3273 0.09981,-0.3258 -0.01922,-0.3563 -0.104487,-0.027 -0.329998,-0.01 -0.513749,0.028 z"
       id="path3016"
       inkscape:connector-curvature="0"
       sodipodi:nodetypes="ssssccccsssssss" />
    <path
       style="fill:#695b2d;fill-opacity:1;stroke:#000000;stroke-width:0.25;stroke-linecap:butt;stroke-linejoin:miter;stroke-miterlimit:4;stroke-opacity:1;stroke-dasharray:none"
       d="m 19.076508,1032.7028 c -0.207099,-0.1 -0.39242,-0.1881 -0.602277,-0.2222 -0.249463,-0.041 -0.468539,-0.097 -0.743589,-0.06 -0.30765,4e-4 -0.615302,0 -0.922948,-10e-4 -0.209549,0.1829 -0.573877,0.1894 -0.610727,0.5136 -0.02956,0.2458 -0.0428,0.5079 0.05076,0.7394 0.09653,0.1774 0.149743,0.421 0.266143,0.6266 -0.06638,0.2794 0.207572,0.487 0.33802,0.7099 0.110831,0.2063 0.381034,0.2947 0.439907,0.3996 0.05751,0.148 0.217468,0.053 0.312598,0.1914 0.206026,0.1461 0.522137,0.112 0.793865,0.1464 0.205458,0.1232 0.435906,0.2082 0.660592,0.261 0.200595,0.1359 0.504307,0.1015 0.655393,0.314 0.198705,0.039 0.398598,0.231 0.622561,0.2754 0.211157,0.1459 0.447314,0.1677 0.691111,0.2008 0.143205,0.018 0.217922,-0.066 0.274073,-0.1555 0.04643,0.044 0.254116,-0.2229 0.262824,-0.3532 -0.03537,-0.2712 0.0459,-0.589 -0.16767,-0.8084 -0.1287,-0.1873 -0.238516,-0.3905 -0.350384,-0.6001 -0.228088,-0.2151 -0.349365,-0.4439 -0.531338,-0.5962 -0.18038,-0.151 -0.378439,-0.4054 -0.502026,-0.5713 -0.128401,-0.1724 -0.246774,-0.3413 -0.380926,-0.5155 -0.01837,-0.024 -0.03703,-0.048 -0.05605,-0.072 -0.112148,-0.1419 -0.320785,-0.2713 -0.49991,-0.4228 z"
       id="path3009"
       inkscape:connector-curvature="0"
       sodipodi:nodetypes="cscccccccccccccccccssssc" />
    <path
       style="fill:#695b2d;fill-opacity:1;stroke:#000000;stroke-width:0.15000001;stroke-linecap:butt;stroke-linejoin:miter;stroke-miterlimit:4;stroke-opacity:1;stroke-dasharray:none"
       d="m 16.371004,1033.3868 c -0.02364,-0.1437 0.166889,0.024 0.213469,-0.081 0.09825,-0.099 0.06272,-0.2492 0.06749,-0.3742 -0.01831,-0.1073 0.0449,-0.2468 -0.05281,-0.324 -0.0855,-0.069 -0.193321,-0.1018 -0.282622,-0.1661 -0.10831,-0.061 -0.221626,-0.113 -0.332478,-0.169 -0.09612,-0.025 -0.197542,0 -0.296073,-0.01 -0.219415,0 -0.438833,0 -0.658247,-2e-4 -0.117258,0.052 -0.255226,0.036 -0.367103,0.088 -0.113947,0.093 -0.05646,0.2447 -0.07134,0.3682 -0.03145,0.1424 0.120708,0.1036 0.206506,0.1054 0.108504,-1e-4 0.217008,-2e-4 0.325512,-1e-4 -0.03079,0.055 0.110539,0.015 0.06238,0.062 0.126213,-0.019 0.227866,0.078 0.32286,0.1458 0.06858,0.085 0.162464,0.1392 0.239633,0.2138 0.06783,0.078 0.156285,0.1535 0.266765,0.1432 0.110902,0.014 0.217728,-0.058 0.323923,-0.01 l 0.01595,0 0.01617,0 10e-6,0 z"
       id="path3014"
       inkscape:connector-curvature="0" />
  </g>
</svg>
