<?xml version="1.0" encoding="UTF-8" standalone="no"?>
<!-- Created with Inkscape (http://www.inkscape.org/) -->

<svg
   xmlns:dc="http://purl.org/dc/elements/1.1/"
   xmlns:cc="http://creativecommons.org/ns#"
   xmlns:rdf="http://www.w3.org/1999/02/22-rdf-syntax-ns#"
   xmlns:svg="http://www.w3.org/2000/svg"
   xmlns="http://www.w3.org/2000/svg"
   xmlns:xlink="http://www.w3.org/1999/xlink"
   xmlns:sodipodi="http://sodipodi.sourceforge.net/DTD/sodipodi-0.dtd"
   xmlns:inkscape="http://www.inkscape.org/namespaces/inkscape"
   width="22"
   height="22"
   id="svg2"
   version="1.1"
   inkscape:version="0.48.2 r9819"
   sodipodi:docname="fish.svg"
   inkscape:export-filename="C:\cygwin\home\jason\src\bigearth\html\commodity_images\fish_work.png"
   inkscape:export-xdpi="90"
   inkscape:export-ydpi="90">
  <defs
     id="defs4">
    <linearGradient
       id="linearGradient3870">
      <stop
         style="stop-color:#e3c8b3;stop-opacity:1;"
         offset="0"
         id="stop3872" />
      <stop
         style="stop-color:#917057;stop-opacity:1;"
         offset="1"
         id="stop3874" />
    </linearGradient>
    <linearGradient
       id="linearGradient3862">
      <stop
         style="stop-color:#bb9185;stop-opacity:1;"
         offset="0"
         id="stop3864" />
      <stop
         style="stop-color:#747474;stop-opacity:1;"
         offset="1"
         id="stop3866" />
    </linearGradient>
    <linearGradient
       id="linearGradient3844">
      <stop
         style="stop-color:#a57e72;stop-opacity:1;"
         offset="0"
         id="stop3846" />
      <stop
         id="stop3852"
         offset="0.76077807"
         style="stop-color:#d9be9a;stop-opacity:1;" />
      <stop
         style="stop-color:#966152;stop-opacity:1;"
         offset="1"
         id="stop3848" />
    </linearGradient>
    <linearGradient
       id="linearGradient3834">
      <stop
         style="stop-color:#bc4c2c;stop-opacity:1;"
         offset="0"
         id="stop3836" />
      <stop
         id="stop3842"
         offset="0.74466527"
         style="stop-color:#d3896b;stop-opacity:1;" />
      <stop
         style="stop-color:#f9eee5;stop-opacity:1;"
         offset="1"
         id="stop3838" />
    </linearGradient>
    <linearGradient
       id="linearGradient3818">
      <stop
         style="stop-color:#bc4c2c;stop-opacity:1;"
         offset="0"
         id="stop3820" />
      <stop
         style="stop-color:#491e11;stop-opacity:1;"
         offset="1"
         id="stop3822" />
    </linearGradient>
    <linearGradient
       inkscape:collect="always"
       xlink:href="#linearGradient3818"
       id="linearGradient3824"
       x1="6.4934444"
       y1="10.282509"
       x2="6.6021204"
       y2="9.7395401"
       gradientUnits="userSpaceOnUse"
       gradientTransform="matrix(-1.111239,0,0,1.111239,23.542397,-2.2523369)" />
    <linearGradient
       inkscape:collect="always"
       xlink:href="#linearGradient3818"
       id="linearGradient3832"
       x1="11.588169"
       y1="5.6420951"
       x2="11.475449"
       y2="6.2280326"
       gradientUnits="userSpaceOnUse"
       gradientTransform="matrix(-1.111239,0,0,1.111239,23.542397,-2.2523369)" />
    <linearGradient
       inkscape:collect="always"
       xlink:href="#linearGradient3834"
       id="linearGradient3840"
       x1="14.389201"
       y1="10.126293"
       x2="16.43281"
       y2="10.126293"
       gradientUnits="userSpaceOnUse"
       gradientTransform="matrix(-1.111239,0,0,1.111239,23.542397,-2.2523369)" />
    <linearGradient
       inkscape:collect="always"
       xlink:href="#linearGradient3844"
       id="linearGradient3850"
       x1="17.839247"
       y1="8.6904039"
       x2="20.682976"
       y2="9.0029039"
       gradientUnits="userSpaceOnUse"
       gradientTransform="matrix(-1.111239,0,0,1.111239,23.542397,-2.2523369)" />
    <linearGradient
       inkscape:collect="always"
       xlink:href="#linearGradient3818"
       id="linearGradient3860"
       x1="16.3428"
       y1="6.5657058"
       x2="16.058537"
       y2="7.4094558"
       gradientUnits="userSpaceOnUse"
       gradientTransform="matrix(-1.111239,0,0,1.111239,23.542397,-2.2523369)" />
    <linearGradient
       inkscape:collect="always"
       xlink:href="#linearGradient3862"
       id="linearGradient3868"
       x1="10.325892"
       y1="6.1406975"
       x2="10.394476"
       y2="10.828197"
       gradientUnits="userSpaceOnUse"
       gradientTransform="matrix(-1.111239,0,0,1.111239,23.542397,-2.2523369)" />
    <radialGradient
       inkscape:collect="always"
       xlink:href="#linearGradient3870"
       id="radialGradient3876"
       cx="3.2867975"
       cy="8.1203899"
       fx="3.2867975"
       fy="8.1203899"
       r="1.875506"
       gradientTransform="matrix(-0.39294571,-1.1381469,-0.84565108,0.29196139,27.912746,8.5554523)"
       gradientUnits="userSpaceOnUse" />
    <linearGradient
       inkscape:collect="always"
       xlink:href="#linearGradient3834-2"
       id="linearGradient3840-8"
       x1="14.389201"
       y1="10.126293"
       x2="16.43281"
       y2="10.126293"
       gradientUnits="userSpaceOnUse"
       gradientTransform="matrix(-1.111239,0,0,1.111239,23.542397,-2.2523369)" />
    <linearGradient
       id="linearGradient3834-2">
      <stop
         style="stop-color:#bc4c2c;stop-opacity:1;"
         offset="0"
         id="stop3836-7" />
      <stop
         id="stop3842-7"
         offset="0.74466527"
         style="stop-color:#d3896b;stop-opacity:1;" />
      <stop
         style="stop-color:#f9eee5;stop-opacity:1;"
         offset="1"
         id="stop3838-1" />
    </linearGradient>
    <linearGradient
       inkscape:collect="always"
       xlink:href="#linearGradient3818-6"
       id="linearGradient3832-2"
       x1="11.588169"
       y1="5.6420951"
       x2="11.475449"
       y2="6.2280326"
       gradientUnits="userSpaceOnUse"
       gradientTransform="matrix(-1.111239,0,0,1.111239,23.542397,-2.2523369)" />
    <linearGradient
       id="linearGradient3818-6">
      <stop
         style="stop-color:#bc4c2c;stop-opacity:1;"
         offset="0"
         id="stop3820-0" />
      <stop
         style="stop-color:#491e11;stop-opacity:1;"
         offset="1"
         id="stop3822-4" />
    </linearGradient>
    <linearGradient
       inkscape:collect="always"
       xlink:href="#linearGradient3818-6"
       id="linearGradient3860-9"
       x1="16.3428"
       y1="6.5657058"
       x2="16.058537"
       y2="7.4094558"
       gradientUnits="userSpaceOnUse"
       gradientTransform="matrix(-1.111239,0,0,1.111239,23.542397,-2.2523369)" />
    <linearGradient
       id="linearGradient3912">
      <stop
         style="stop-color:#bc4c2c;stop-opacity:1;"
         offset="0"
         id="stop3914" />
      <stop
         style="stop-color:#491e11;stop-opacity:1;"
         offset="1"
         id="stop3916" />
    </linearGradient>
    <linearGradient
       inkscape:collect="always"
       xlink:href="#linearGradient3862-6"
       id="linearGradient3868-4"
       x1="10.325892"
       y1="6.1406975"
       x2="10.394476"
       y2="10.828197"
       gradientUnits="userSpaceOnUse"
       gradientTransform="matrix(-1.111239,0,0,1.111239,23.542397,-2.2523369)" />
    <linearGradient
       id="linearGradient3862-6">
      <stop
         style="stop-color:#bc4c2c;stop-opacity:1;"
         offset="0"
         id="stop3864-0" />
      <stop
         style="stop-color:#8f6559;stop-opacity:1;"
         offset="1"
         id="stop3866-3" />
    </linearGradient>
    <linearGradient
       inkscape:collect="always"
       xlink:href="#linearGradient3844-2"
       id="linearGradient3850-6"
       x1="17.839247"
       y1="8.6904039"
       x2="20.682976"
       y2="9.0029039"
       gradientUnits="userSpaceOnUse"
       gradientTransform="matrix(-1.111239,0,0,1.111239,23.542397,-2.2523369)" />
    <linearGradient
       id="linearGradient3844-2">
      <stop
         style="stop-color:#bc4c2c;stop-opacity:1;"
         offset="0"
         id="stop3846-4" />
      <stop
         id="stop3852-5"
         offset="0.76077807"
         style="stop-color:#f8c37b;stop-opacity:1;" />
      <stop
         style="stop-color:#bc4c2c;stop-opacity:1;"
         offset="1"
         id="stop3848-8" />
    </linearGradient>
    <linearGradient
       inkscape:collect="always"
       xlink:href="#linearGradient3818-6"
       id="linearGradient3824-8"
       x1="6.4934444"
       y1="10.282509"
       x2="6.6021204"
       y2="9.7395401"
       gradientUnits="userSpaceOnUse"
       gradientTransform="matrix(-1.111239,0,0,1.111239,23.542397,-2.2523369)" />
    <linearGradient
       id="linearGradient3928">
      <stop
         style="stop-color:#bc4c2c;stop-opacity:1;"
         offset="0"
         id="stop3930" />
      <stop
         style="stop-color:#491e11;stop-opacity:1;"
         offset="1"
         id="stop3932" />
    </linearGradient>
    <radialGradient
       inkscape:collect="always"
       xlink:href="#linearGradient3870-2"
       id="radialGradient3876-1"
       cx="3.2867975"
       cy="8.1203899"
       fx="3.2867975"
       fy="8.1203899"
       r="1.875506"
       gradientTransform="matrix(-0.39294571,-1.1381469,-0.84565108,0.29196139,27.912746,8.5554523)"
       gradientUnits="userSpaceOnUse" />
    <linearGradient
       id="linearGradient3870-2">
      <stop
         style="stop-color:#f1c6a5;stop-opacity:1;"
         offset="0"
         id="stop3872-1" />
      <stop
         style="stop-color:#b36b35;stop-opacity:1;"
         offset="1"
         id="stop3874-4" />
    </linearGradient>
    <linearGradient
       inkscape:collect="always"
       xlink:href="#linearGradient3834"
       id="linearGradient4036"
       gradientUnits="userSpaceOnUse"
       gradientTransform="matrix(-1.111239,0,0,1.111239,23.542397,-2.2523369)"
       x1="14.389201"
       y1="10.126293"
       x2="16.43281"
       y2="10.126293" />
    <linearGradient
       inkscape:collect="always"
       xlink:href="#linearGradient3818"
       id="linearGradient4038"
       gradientUnits="userSpaceOnUse"
       gradientTransform="matrix(-1.111239,0,0,1.111239,23.542397,-2.2523369)"
       x1="11.588169"
       y1="5.6420951"
       x2="11.475449"
       y2="6.2280326" />
    <linearGradient
       inkscape:collect="always"
       xlink:href="#linearGradient3818"
       id="linearGradient4040"
       gradientUnits="userSpaceOnUse"
       gradientTransform="matrix(-1.111239,0,0,1.111239,23.542397,-2.2523369)"
       x1="16.3428"
       y1="6.5657058"
       x2="16.058537"
       y2="7.4094558" />
    <linearGradient
       inkscape:collect="always"
       xlink:href="#linearGradient3862"
       id="linearGradient4042"
       gradientUnits="userSpaceOnUse"
       gradientTransform="matrix(-1.111239,0,0,1.111239,23.542397,-2.2523369)"
       x1="10.325892"
       y1="6.1406975"
       x2="10.394476"
       y2="10.828197" />
    <linearGradient
       inkscape:collect="always"
       xlink:href="#linearGradient3844"
       id="linearGradient4044"
       gradientUnits="userSpaceOnUse"
       gradientTransform="matrix(-1.111239,0,0,1.111239,23.542397,-2.2523369)"
       x1="17.839247"
       y1="8.6904039"
       x2="20.682976"
       y2="9.0029039" />
    <linearGradient
       inkscape:collect="always"
       xlink:href="#linearGradient3818"
       id="linearGradient4046"
       gradientUnits="userSpaceOnUse"
       gradientTransform="matrix(-1.111239,0,0,1.111239,23.542397,-2.2523369)"
       x1="6.4934444"
       y1="10.282509"
       x2="6.6021204"
       y2="9.7395401" />
    <radialGradient
       inkscape:collect="always"
       xlink:href="#linearGradient3870"
       id="radialGradient4048"
       gradientUnits="userSpaceOnUse"
       gradientTransform="matrix(-0.39294571,-1.1381469,-0.84565108,0.29196139,27.912746,8.5554523)"
       cx="3.2867975"
       cy="8.1203899"
       fx="3.2867975"
       fy="8.1203899"
       r="1.875506" />
    <radialGradient
       inkscape:collect="always"
       xlink:href="#linearGradient3870"
       id="radialGradient4053"
       gradientUnits="userSpaceOnUse"
       gradientTransform="matrix(-0.39294571,-1.1381469,-0.84565108,0.29196139,27.912746,8.5554523)"
       cx="3.2867975"
       cy="8.1203899"
       fx="3.2867975"
       fy="8.1203899"
       r="1.875506" />
    <linearGradient
       inkscape:collect="always"
       xlink:href="#linearGradient3818"
       id="linearGradient4056"
       gradientUnits="userSpaceOnUse"
       gradientTransform="matrix(-1.111239,0,0,1.111239,23.542397,-2.2523369)"
       x1="6.4934444"
       y1="10.282509"
       x2="6.6021204"
       y2="9.7395401" />
    <linearGradient
       inkscape:collect="always"
       xlink:href="#linearGradient3844"
       id="linearGradient4059"
       gradientUnits="userSpaceOnUse"
       gradientTransform="matrix(-1.111239,0,0,1.111239,23.542397,-2.2523369)"
       x1="17.839247"
       y1="8.6904039"
       x2="20.682976"
       y2="9.0029039" />
    <linearGradient
       inkscape:collect="always"
       xlink:href="#linearGradient3862"
       id="linearGradient4062"
       gradientUnits="userSpaceOnUse"
       gradientTransform="matrix(-1.111239,0,0,1.111239,23.542397,-2.2523369)"
       x1="10.325892"
       y1="6.1406975"
       x2="10.394476"
       y2="10.828197" />
    <linearGradient
       inkscape:collect="always"
       xlink:href="#linearGradient3818"
       id="linearGradient4066"
       gradientUnits="userSpaceOnUse"
       gradientTransform="matrix(-1.111239,0,0,1.111239,23.542397,-2.2523369)"
       x1="16.3428"
       y1="6.5657058"
       x2="16.058537"
       y2="7.4094558" />
    <linearGradient
       inkscape:collect="always"
       xlink:href="#linearGradient3818"
       id="linearGradient4069"
       gradientUnits="userSpaceOnUse"
       gradientTransform="matrix(-1.111239,0,0,1.111239,23.542397,-2.2523369)"
       x1="11.588169"
       y1="5.6420951"
       x2="11.475449"
       y2="6.2280326" />
    <linearGradient
       inkscape:collect="always"
       xlink:href="#linearGradient3834"
       id="linearGradient4072"
       gradientUnits="userSpaceOnUse"
       gradientTransform="matrix(-1.111239,0,0,1.111239,23.542397,-2.2523369)"
       x1="14.389201"
       y1="10.126293"
       x2="16.43281"
       y2="10.126293" />
    <radialGradient
       inkscape:collect="always"
       xlink:href="#linearGradient3870-9"
       id="radialGradient4053-6"
       gradientUnits="userSpaceOnUse"
       gradientTransform="matrix(-0.39294571,-1.1381469,-0.84565108,0.29196139,28.084782,15.431819)"
       cx="3.2867975"
       cy="8.1203899"
       fx="3.2867975"
       fy="8.1203899"
       r="1.875506" />
    <linearGradient
       id="linearGradient3870-9">
      <stop
         style="stop-color:#e3c8b3;stop-opacity:1;"
         offset="0"
         id="stop3872-8" />
      <stop
         style="stop-color:#917057;stop-opacity:1;"
         offset="1"
         id="stop3874-6" />
    </linearGradient>
    <linearGradient
       inkscape:collect="always"
       xlink:href="#linearGradient3818-2"
       id="linearGradient4056-6"
       gradientUnits="userSpaceOnUse"
       gradientTransform="matrix(-1.111239,0,0,1.111239,23.714433,4.6240297)"
       x1="6.4934444"
       y1="10.282509"
       x2="6.6021204"
       y2="9.7395401" />
    <linearGradient
       id="linearGradient3818-2">
      <stop
         style="stop-color:#bc4c2c;stop-opacity:1;"
         offset="0"
         id="stop3820-3" />
      <stop
         style="stop-color:#491e11;stop-opacity:1;"
         offset="1"
         id="stop3822-8" />
    </linearGradient>
    <linearGradient
       inkscape:collect="always"
       xlink:href="#linearGradient3844-6"
       id="linearGradient4059-2"
       gradientUnits="userSpaceOnUse"
       gradientTransform="matrix(-1.111239,0,0,1.111239,23.714433,4.6240297)"
       x1="17.839247"
       y1="8.6904039"
       x2="20.682976"
       y2="9.0029039" />
    <linearGradient
       id="linearGradient3844-6">
      <stop
         style="stop-color:#a57e72;stop-opacity:1;"
         offset="0"
         id="stop3846-2" />
      <stop
         id="stop3852-7"
         offset="0.76077807"
         style="stop-color:#d9be9a;stop-opacity:1;" />
      <stop
         style="stop-color:#966152;stop-opacity:1;"
         offset="1"
         id="stop3848-5" />
    </linearGradient>
    <linearGradient
       inkscape:collect="always"
       xlink:href="#linearGradient3862-8"
       id="linearGradient4062-7"
       gradientUnits="userSpaceOnUse"
       gradientTransform="matrix(-1.111239,0,0,1.111239,23.714433,4.6240297)"
       x1="10.325892"
       y1="6.1406975"
       x2="10.394476"
       y2="10.828197" />
    <linearGradient
       id="linearGradient3862-8">
      <stop
         style="stop-color:#bb9185;stop-opacity:1;"
         offset="0"
         id="stop3864-2" />
      <stop
         style="stop-color:#747474;stop-opacity:1;"
         offset="1"
         id="stop3866-7" />
    </linearGradient>
    <linearGradient
       inkscape:collect="always"
       xlink:href="#linearGradient3818-2"
       id="linearGradient4066-8"
       gradientUnits="userSpaceOnUse"
       gradientTransform="matrix(-1.111239,0,0,1.111239,23.714433,4.6240297)"
       x1="16.3428"
       y1="6.5657058"
       x2="16.058537"
       y2="7.4094558" />
    <linearGradient
       id="linearGradient4102">
      <stop
         style="stop-color:#bc4c2c;stop-opacity:1;"
         offset="0"
         id="stop4104" />
      <stop
         style="stop-color:#491e11;stop-opacity:1;"
         offset="1"
         id="stop4106" />
    </linearGradient>
    <linearGradient
       inkscape:collect="always"
       xlink:href="#linearGradient3818-2"
       id="linearGradient4069-0"
       gradientUnits="userSpaceOnUse"
       gradientTransform="matrix(-1.111239,0,0,1.111239,23.714433,4.6240297)"
       x1="11.588169"
       y1="5.6420951"
       x2="11.475449"
       y2="6.2280326" />
    <linearGradient
       id="linearGradient4109">
      <stop
         style="stop-color:#bc4c2c;stop-opacity:1;"
         offset="0"
         id="stop4111" />
      <stop
         style="stop-color:#491e11;stop-opacity:1;"
         offset="1"
         id="stop4113" />
    </linearGradient>
    <linearGradient
       inkscape:collect="always"
       xlink:href="#linearGradient3834-0"
       id="linearGradient4072-2"
       gradientUnits="userSpaceOnUse"
       gradientTransform="matrix(-1.111239,0,0,1.111239,23.542397,-2.2523369)"
       x1="14.389201"
       y1="10.126293"
       x2="16.43281"
       y2="10.126293" />
    <linearGradient
       id="linearGradient3834-0">
      <stop
         style="stop-color:#bc4c2c;stop-opacity:1;"
         offset="0"
         id="stop3836-8" />
      <stop
         id="stop3842-9"
         offset="0.74466527"
         style="stop-color:#d3896b;stop-opacity:1;" />
      <stop
         style="stop-color:#f9eee5;stop-opacity:1;"
         offset="1"
         id="stop3838-2" />
    </linearGradient>
    <linearGradient
       y2="10.126293"
       x2="16.43281"
       y1="10.126293"
       x1="14.389201"
       gradientTransform="matrix(-1.111239,0,0,1.111239,23.714433,4.6240297)"
       gradientUnits="userSpaceOnUse"
       id="linearGradient4130"
       xlink:href="#linearGradient3834-0"
       inkscape:collect="always" />
  </defs>
  <sodipodi:namedview
     id="base"
     pagecolor="#ffffff"
     bordercolor="#666666"
     borderopacity="1.0"
     inkscape:pageopacity="0.0"
     inkscape:pageshadow="2"
     inkscape:zoom="22.627417"
     inkscape:cx="6.1192786"
     inkscape:cy="11"
     inkscape:document-units="px"
     inkscape:current-layer="layer2"
     showgrid="false"
     inkscape:window-width="1301"
     inkscape:window-height="782"
     inkscape:window-x="337"
     inkscape:window-y="118"
     inkscape:window-maximized="0" />
  <metadata
     id="metadata7">
    <rdf:RDF>
      <cc:Work
         rdf:about="">
        <dc:format>image/svg+xml</dc:format>
        <dc:type
           rdf:resource="http://purl.org/dc/dcmitype/StillImage" />
        <dc:title></dc:title>
      </cc:Work>
    </rdf:RDF>
  </metadata>
  <g
     inkscape:groupmode="layer"
     id="layer2"
     inkscape:label="Fish"
     style="opacity:1">
    <path
       style="fill:url(#linearGradient4072);fill-opacity:1;stroke:#000000;stroke-width:0.1111239;stroke-miterlimit:4;stroke-opacity:1;stroke-dasharray:none"
       d="m 7.5435323,8.9989583 c -0.08742,0.0864 0.05129,0.100722 -0.0048,0.01959 -0.07044,0.208214 -0.344732,0.154815 -0.438202,0.371598 -0.120855,0.231901 -0.329347,0.336623 -0.580753,0.353895 -0.227114,0.0357 -0.426481,0.161591 -0.655195,0.193488 -0.171762,0.1644157 -0.421488,0.05936 -0.538095,-0.119468 -0.08112,-0.169169 -0.02426,-0.365444 -0.04013,-0.546521 0.001,-0.429854 -9.92e-4,-0.859709 9e-6,-1.289562 0.932813,-0.02608 1.809909,0.665372 2.257141,1.016979 z"
       id="path3770"
       inkscape:connector-curvature="0"
       sodipodi:nodetypes="ccccccccc" />
    <path
       style="fill:url(#linearGradient4069);fill-opacity:1;stroke:none"
       d="M 12.323348,4.3803709 C 12.086692,4.3016349 11.844927,4.1346734 11.614799,4.0212585 11.324693,3.8782842 10.953283,3.9000681 10.700559,3.9541365 c -0.27589,0.059024 -0.586833,0.29363 -0.8296757,0.3962007 -0.332499,0.027249 -0.534829,0.037194 -0.860171,0.074614 0.198541,0.082514 0.572707,0.2280127 0.762548,0.3394412 0.4686847,-0.069025 2.0382137,-0.3169943 2.5500877,-0.3840215 z"
       id="path3775"
       inkscape:connector-curvature="0"
       sodipodi:nodetypes="csscccc" />
    <path
       style="fill:url(#linearGradient4066);fill-opacity:1;stroke:none"
       d="m 6.7299463,5.3378224 c -0.196945,-0.032082 -0.394591,-0.057927 -0.59257,-0.075446 -0.266355,-0.022021 -0.539387,-0.087725 -0.804418,-0.028778 -0.149402,0.1299568 -0.399344,0.1398786 -0.501265,0.3137508 -0.01433,0.1963942 0.03187,0.5236729 0.302908,0.4864388 0.277432,0.047454 0.562027,0.030131 0.819212,-0.083119 0.199702,-0.063611 0.401937,-0.1284413 0.588785,-0.2232612 0.139696,-0.078562 0.216124,-0.2310105 0.187348,-0.3895854 z"
       id="path3781"
       inkscape:connector-curvature="0" />
    <path
       style="fill:#421b10;fill-opacity:1;stroke:#000000;stroke-width:0.1111239;stroke-miterlimit:4;stroke-opacity:1;stroke-dasharray:none"
       d="m 11.086226,9.7058843 c -0.12946,0.01279 -0.565471,0.116494 -0.963078,0.169025 -0.3082957,0.04073 -0.6312347,0.109935 -0.8974587,0.1904957 0.209891,-0.3928177 0.508821,-0.4285617 0.750101,-0.5858007"
       id="path3788"
       inkscape:connector-curvature="0"
       sodipodi:nodetypes="cscc" />
    <path
       style="fill:url(#linearGradient4062);fill-opacity:1;stroke:#000000;stroke-width:0.1111239;stroke-miterlimit:4;stroke-opacity:1;stroke-dasharray:none"
       d="m 19.499272,9.0237613 c -0.934042,0.128003 -1.87317,0.321379 -2.759282,0.63819 -0.739969,0.26456 -1.737956,0.5492517 -2.550361,0.5229167 -0.930111,-0.03015 -2.15585,-0.17479 -3.070726,-0.3942477 -0.779664,-0.187025 -1.3950967,-0.334442 -2.1999567,-0.332853 -0.712473,0.0014 -1.191884,-0.359597 -2.01185,-0.642458 -0.813399,-0.280595 -1.63136,-0.651836 -2.487737,-0.651652 -0.671725,1.44e-4 -1.493022,0.71571 -1.905709,-0.181591 -0.268856,-0.5845709 -0.432709,-1.7651264 0.489159,-1.6530074 1.058114,0.1286895 1.941452,-0.2816372 2.923031,-0.6320213 1.26534,-0.4516752 2.900466,-0.7940925 4.3702377,-1.0450216 1.466365,-0.2503475 2.219082,-0.310053 3.341278,-0.2642725 0.729268,0.029751 1.698987,0.1954986 2.389923,0.3440127 0.703371,0.1511869 2.295605,0.6470805 2.775245,0.7445706 0.135468,0.5901622 0.543412,2.7999805 0.696748,3.5474345 z"
       id="path3808"
       inkscape:connector-curvature="0"
       sodipodi:nodetypes="csssssssssssscc" />
    <path
       style="fill:url(#linearGradient4059);fill-opacity:1;stroke:#000000;stroke-width:0.1111239;stroke-miterlimit:4;stroke-opacity:1;stroke-dasharray:none"
       d="M 3.6492343,6.3200783 C 3.2031823,6.2066083 2.5372923,5.8506893 2.1287633,5.6757231 1.5051143,5.408625 1.0877023,5.5146541 0.49079925,5.5382501 c -0.119347,0.24204 0.0071,0.7327674 -0.0165,1.0236631 -0.03415,0.4197145 0.06031,1.041099 0.218113,1.4256451 0.242039,0.589806 0.145477,0.671638 0.192569,1.21042 -0.08577,0.378792 0.12271805,0.8021077 0.30626005,1.0756607 0.429008,0.0047 0.924588,-0.4644937 1.229234,-0.7161867 0.483162,-0.342627 0.889642,-0.88181 1.12369,-1.159855 -0.491066,-0.0087 -0.936327,-0.401352 -1.073284,-0.8656188 -0.109101,-0.3698472 -0.0597,-0.9021342 0.21327,-1.0592696 0.292635,-0.1684612 0.627914,-0.00839 0.965134,-0.1526306 z"
       id="path2997"
       inkscape:connector-curvature="0"
       sodipodi:nodetypes="cscssccccsscc" />
    <path
       style="fill:url(#linearGradient4056);fill-opacity:1;stroke:none"
       d="m 14.760384,8.7670363 c 0.226074,-0.06122 0.750061,-0.104124 0.875209,-0.123146 0.373797,-0.05682 0.611492,-0.09212 0.983957,-0.141893 0.272054,-0.03636 0.474717,-0.128892 0.742509,-0.190687 0.223606,-0.04745 0.344849,0.297589 0.105836,0.411121 -0.213353,0.08973 -0.475553,0.211978 -0.692557,0.310498 -0.228149,0.103579 -0.820183,0.239467 -1.08844,0.244036 -0.474274,0.0081 -0.589286,-0.267116 -0.926514,-0.509929 z"
       id="path3802"
       inkscape:connector-curvature="0"
       sodipodi:nodetypes="cssccssc" />
    <path
       style="fill:url(#radialGradient4053);fill-opacity:1;stroke:#000000;stroke-width:0.1111239;stroke-miterlimit:4;stroke-opacity:1;stroke-dasharray:none"
       d="m 21.491069,8.3552823 c -0.218298,0.156208 -0.547122,0.240977 -0.799642,0.388305 -0.265284,0.154773 -0.614653,0.207368 -0.95827,0.246375 -0.332962,0.03779 -0.632798,0.09244 -1.012878,0.02001 -0.322376,-0.06143 -0.633872,-0.127982 -0.872736,-0.407234 -0.213658,-0.249777 -0.388825,-0.491223 -0.385801,-0.8241423 0.0062,-0.6870344 0.07433,-0.9090434 0.383471,-1.4204397 0.16726,-0.2766922 0.519384,-0.8473691 0.905261,-0.8938916 0.543598,0.1465949 0.74819,0.2905718 0.965647,0.3223586 0.225647,0.032984 0.49486,0.076468 0.84752,0.2390001 0.415888,0.1916719 0.80727,0.4663885 0.854948,0.7858326 -0.282352,0.0041 -0.446982,0.1275209 -0.582493,0.2735468 -0.216994,0.2338311 -0.272817,0.4339642 -0.283718,0.8043375 0.306201,0.125394 0.809639,0.208683 0.938691,0.465942 z"
       id="path3797"
       inkscape:connector-curvature="0"
       sodipodi:nodetypes="csssssscsscscc" />
    <path
       sodipodi:type="arc"
       style="opacity:0.63677135;fill:#000000;fill-opacity:1;stroke:none"
       id="path3814"
       sodipodi:cx="3.0976562"
       sodipodi:cy="8.0742188"
       sodipodi:rx="0.13671875"
       sodipodi:ry="0.14453125"
       d="m 3.234375,8.0742188 a 0.13671875,0.14453125 0 1 1 -0.2734375,0 0.13671875,0.14453125 0 1 1 0.2734375,0 z"
       transform="matrix(-1.111239,0,0,1.111239,23.594486,-2.2957447)" />
    <path
       sodipodi:type="arc"
       style="opacity:0.63677135;fill:none;stroke:#000000;stroke-width:0.1;stroke-miterlimit:4;stroke-opacity:1;stroke-dasharray:none"
       id="path3816"
       sodipodi:cx="3.0546875"
       sodipodi:cy="8.0976562"
       sodipodi:rx="0.296875"
       sodipodi:ry="0.29296875"
       d="m 3.3515625,8.0976563 a 0.296875,0.29296875 0 1 1 -0.59375,0 0.296875,0.29296875 0 1 1 0.59375,0 z"
       transform="matrix(-1.111239,0,0,1.111239,23.542397,-2.3044263)" />
    <path
       style="fill:url(#linearGradient4130);fill-opacity:1;stroke:#000000;stroke-width:0.1111239;stroke-miterlimit:4;stroke-opacity:1;stroke-dasharray:none"
       d="m 7.7155695,15.875325 c -0.08742,0.0864 0.05129,0.100722 -0.0048,0.01959 -0.07044,0.208214 -0.344732,0.154815 -0.438202,0.371598 -0.120855,0.231901 -0.329347,0.336623 -0.580753,0.353895 -0.227114,0.0357 -0.426481,0.161591 -0.655195,0.193488 -0.171762,0.164415 -0.421488,0.05936 -0.538095,-0.119468 -0.08112,-0.169169 -0.02426,-0.365444 -0.04013,-0.546521 0.001,-0.429854 -9.92e-4,-0.859709 9e-6,-1.289562 0.932813,-0.02608 1.809909,0.665372 2.257141,1.016979 z"
       id="path3770-8"
       inkscape:connector-curvature="0"
       sodipodi:nodetypes="ccccccccc" />
    <path
       style="fill:url(#linearGradient4069-0);fill-opacity:1;stroke:none"
       d="m 12.495384,11.256737 c -0.236656,-0.07874 -0.478421,-0.245697 -0.708549,-0.359112 -0.290106,-0.142975 -0.661516,-0.121191 -0.91424,-0.06712 -0.27589,0.05902 -0.586833,0.29363 -0.829675,0.3962 -0.3324985,0.02725 -0.5348285,0.03719 -0.8601705,0.07461 0.198541,0.08251 0.572707,0.228013 0.762548,0.339442 0.4686835,-0.06902 2.0382125,-0.316995 2.5500865,-0.384022 z"
       id="path3775-2"
       inkscape:connector-curvature="0"
       sodipodi:nodetypes="csscccc" />
    <path
       style="fill:url(#linearGradient4066-8);fill-opacity:1;stroke:none"
       d="m 6.9019835,12.214189 c -0.196945,-0.03208 -0.394591,-0.05793 -0.59257,-0.07545 -0.266355,-0.02202 -0.539387,-0.08772 -0.804418,-0.02878 -0.149402,0.129956 -0.399344,0.139878 -0.501265,0.31375 -0.01433,0.196395 0.03187,0.523673 0.302908,0.486439 0.277432,0.04745 0.562027,0.03013 0.819212,-0.08312 0.199702,-0.06361 0.401937,-0.128441 0.588785,-0.223261 0.139696,-0.07856 0.216124,-0.23101 0.187348,-0.389585 z"
       id="path3781-0"
       inkscape:connector-curvature="0" />
    <path
       style="fill:#421b10;fill-opacity:1;stroke:#000000;stroke-width:0.1111239;stroke-miterlimit:4;stroke-opacity:1;stroke-dasharray:none"
       d="m 11.258262,16.582251 c -0.12946,0.01279 -0.565471,0.116494 -0.963078,0.169025 -0.3082945,0.04073 -0.6312335,0.109935 -0.8974575,0.190495 0.209891,-0.392817 0.508821,-0.428561 0.7501005,-0.5858"
       id="path3788-5"
       inkscape:connector-curvature="0"
       sodipodi:nodetypes="cscc" />
    <path
       style="fill:url(#linearGradient4062-7);fill-opacity:1;stroke:#000000;stroke-width:0.1111239;stroke-miterlimit:4;stroke-opacity:1;stroke-dasharray:none"
       d="m 19.671308,15.900128 c -0.934042,0.128003 -1.87317,0.321379 -2.759282,0.63819 -0.739969,0.26456 -1.737956,0.549251 -2.550361,0.522916 -0.930111,-0.03015 -2.15585,-0.17479 -3.070726,-0.394247 -0.779664,-0.187025 -1.3950955,-0.334442 -2.1999555,-0.332853 -0.712473,0.0014 -1.191884,-0.359597 -2.01185,-0.642458 -0.813399,-0.280595 -1.63136,-0.651836 -2.487737,-0.651652 -0.671725,1.44e-4 -1.493022,0.71571 -1.905709,-0.181591 -0.268856,-0.584571 -0.432709,-1.765127 0.489159,-1.653008 1.058114,0.12869 1.941452,-0.281637 2.923031,-0.632021 1.26534,-0.451675 2.900466,-0.794093 4.3702365,-1.045022 1.466365,-0.250347 2.219082,-0.310053 3.341278,-0.264272 0.729268,0.02975 1.698987,0.195498 2.389923,0.344012 0.703371,0.151187 2.295605,0.647081 2.775245,0.744571 0.135468,0.590162 0.543412,2.799981 0.696748,3.547435 z"
       id="path3808-5"
       inkscape:connector-curvature="0"
       sodipodi:nodetypes="csssssssssssscc" />
    <path
       style="fill:url(#linearGradient4059-2);fill-opacity:1;stroke:#000000;stroke-width:0.1111239;stroke-miterlimit:4;stroke-opacity:1;stroke-dasharray:none"
       d="m 3.8212715,13.196445 c -0.446052,-0.11347 -1.111942,-0.469389 -1.520471,-0.644356 -0.623649,-0.267098 -1.041061,-0.161069 -1.63796402,-0.137473 -0.119347,0.24204 0.0071,0.732768 -0.0165,1.023663 -0.03415,0.419715 0.06031,1.041099 0.218113,1.425646 0.24203902,0.589806 0.14547702,0.671638 0.19256902,1.21042 -0.08577,0.378792 0.122718,0.802107 0.30626,1.07566 0.429008,0.0047 0.924588,-0.464493 1.229234,-0.716186 0.483162,-0.342627 0.889642,-0.88181 1.12369,-1.159855 -0.491066,-0.0087 -0.936327,-0.401352 -1.073284,-0.865619 -0.109101,-0.369847 -0.0597,-0.902134 0.21327,-1.05927 0.292635,-0.168461 0.627914,-0.0084 0.965134,-0.15263 z"
       id="path2997-2"
       inkscape:connector-curvature="0"
       sodipodi:nodetypes="cscssccccsscc" />
    <path
       style="fill:url(#linearGradient4056-6);fill-opacity:1;stroke:none"
       d="m 14.93242,15.643403 c 0.226074,-0.06122 0.750061,-0.104124 0.875209,-0.123146 0.373797,-0.05682 0.611492,-0.09212 0.983957,-0.141893 0.272054,-0.03636 0.474717,-0.128892 0.742509,-0.190687 0.223606,-0.04745 0.344849,0.297589 0.105836,0.411121 -0.213353,0.08973 -0.475553,0.211978 -0.692557,0.310498 -0.228149,0.103579 -0.820183,0.239467 -1.08844,0.244036 -0.474274,0.0081 -0.589286,-0.267116 -0.926514,-0.509929 z"
       id="path3802-7"
       inkscape:connector-curvature="0"
       sodipodi:nodetypes="cssccssc" />
    <path
       style="fill:url(#radialGradient4053-6);fill-opacity:1;stroke:#000000;stroke-width:0.1111239;stroke-miterlimit:4;stroke-opacity:1;stroke-dasharray:none"
       d="m 21.663105,15.231649 c -0.218298,0.156208 -0.547122,0.240977 -0.799642,0.388305 -0.265284,0.154773 -0.614653,0.207368 -0.95827,0.246375 -0.332962,0.03779 -0.632798,0.09244 -1.012878,0.02001 -0.322376,-0.06143 -0.633872,-0.127982 -0.872736,-0.407234 -0.213658,-0.249777 -0.388825,-0.491223 -0.385801,-0.824143 0.0062,-0.687034 0.07433,-0.909043 0.383471,-1.420439 0.16726,-0.276693 0.519384,-0.84737 0.905261,-0.893892 0.543598,0.146595 0.74819,0.290572 0.965647,0.322359 0.225647,0.03298 0.49486,0.07647 0.84752,0.239 0.415888,0.191672 0.80727,0.466388 0.854948,0.785832 -0.282352,0.0041 -0.446982,0.127521 -0.582493,0.273547 -0.216994,0.233831 -0.272817,0.433964 -0.283718,0.804338 0.306201,0.125394 0.809639,0.208683 0.938691,0.465942 z"
       id="path3797-6"
       inkscape:connector-curvature="0"
       sodipodi:nodetypes="csssssscsscscc" />
    <path
       sodipodi:type="arc"
       style="opacity:0.63677135;fill:#000000;fill-opacity:1;stroke:none"
       id="path3814-7"
       sodipodi:cx="3.0976562"
       sodipodi:cy="8.0742188"
       sodipodi:rx="0.13671875"
       sodipodi:ry="0.14453125"
       d="m 3.234375,8.0742188 a 0.13671875,0.14453125 0 1 1 -0.2734375,0 0.13671875,0.14453125 0 1 1 0.2734375,0 z"
       transform="matrix(-1.111239,0,0,1.111239,23.766522,4.5806219)" />
    <path
       sodipodi:type="arc"
       style="opacity:0.63677135;fill:none;stroke:#000000;stroke-width:0.1;stroke-miterlimit:4;stroke-opacity:1;stroke-dasharray:none"
       id="path3816-8"
       sodipodi:cx="3.0546875"
       sodipodi:cy="8.0976562"
       sodipodi:rx="0.296875"
       sodipodi:ry="0.29296875"
       d="m 3.3515625,8.0976563 a 0.296875,0.29296875 0 1 1 -0.59375,0 0.296875,0.29296875 0 1 1 0.59375,0 z"
       transform="matrix(-1.111239,0,0,1.111239,23.714433,4.5719403)" />
  </g>
</svg>
