<?xml version="1.0" encoding="UTF-8" standalone="no"?>
<!-- Created with Inkscape (http://www.inkscape.org/) -->

<svg
   xmlns:dc="http://purl.org/dc/elements/1.1/"
   xmlns:cc="http://creativecommons.org/ns#"
   xmlns:rdf="http://www.w3.org/1999/02/22-rdf-syntax-ns#"
   xmlns:svg="http://www.w3.org/2000/svg"
   xmlns="http://www.w3.org/2000/svg"
   xmlns:sodipodi="http://sodipodi.sourceforge.net/DTD/sodipodi-0.dtd"
   xmlns:inkscape="http://www.inkscape.org/namespaces/inkscape"
   width="32px"
   height="32px"
   id="svg2985"
   version="1.1"
   inkscape:version="0.48.1 r9760"
   sodipodi:docname="New document 2">
  <defs
     id="defs2987" />
  <sodipodi:namedview
     id="base"
     pagecolor="#ffffff"
     bordercolor="#666666"
     borderopacity="1.0"
     inkscape:pageopacity="0.0"
     inkscape:pageshadow="2"
     inkscape:zoom="7.9180417"
     inkscape:cx="17.082495"
     inkscape:cy="22.303456"
     inkscape:current-layer="layer1"
     showgrid="true"
     inkscape:grid-bbox="true"
     inkscape:document-units="px"
     inkscape:window-width="874"
     inkscape:window-height="654"
     inkscape:window-x="404"
     inkscape:window-y="168"
     inkscape:window-maximized="0" />
  <metadata
     id="metadata2990">
    <rdf:RDF>
      <cc:Work
         rdf:about="">
        <dc:format>image/svg+xml</dc:format>
        <dc:type
           rdf:resource="http://purl.org/dc/dcmitype/StillImage" />
        <dc:title></dc:title>
      </cc:Work>
    </rdf:RDF>
  </metadata>
  <g
     inkscape:groupmode="layer"
     id="layer2"
     inkscape:label="Elipse"
     style="display:none">
    <path
       sodipodi:type="arc"
       style="color:#000000;fill:#884400;fill-opacity:1;fill-rule:nonzero;stroke:none;stroke-width:0.85000002;marker:none;visibility:visible;display:inline;overflow:visible;enable-background:accumulate"
       id="path3797"
       sodipodi:cx="16.607641"
       sodipodi:cy="17.791941"
       sodipodi:rx="20.396458"
       sodipodi:ry="10.040361"
       d="m 37.004099,17.791941 a 20.396458,10.040361 0 1 1 -40.7929155,0 20.396458,10.040361 0 1 1 40.7929155,0 z" />
  </g>
  <g
     id="layer1"
     inkscape:label="Mountain"
     inkscape:groupmode="layer"
     style="display:inline">
    <path
       style="color:#000000;fill:#b59771;fill-opacity:1;fill-rule:nonzero;stroke:#685d4c;stroke-width:0.85000002;stroke-linecap:butt;stroke-linejoin:miter;stroke-miterlimit:4;stroke-opacity:1;stroke-dasharray:none;stroke-dashoffset:0;marker:none;visibility:visible;display:inline;overflow:visible;enable-background:accumulate"
       d="m 17.183213,21.945724 c 0.776609,-0.678969 2.705953,-5.949288 3.941348,-7.600485 0.504892,-0.484884 0.791449,-1.125464 1.259135,-1.630757 0.387664,-0.334069 0.849065,-0.603724 1.330716,-0.773875 0.723964,-0.05315 1.404951,0.154348 2.131173,0.09246 0.634134,0.176383 1.21934,0.492007 1.745132,0.876456 0.66652,0.639158 1.143315,1.465018 1.414493,2.342074 0.142208,0.629861 0.603332,1.088184 0.785096,1.689711 0.27592,0.449367 0.45978,0.944991 0.807211,1.353129 0.437334,0.487181 0.567262,1.16755 0.768426,1.749158"
       id="path3766"
       inkscape:connector-curvature="0"
       sodipodi:nodetypes="cccccccccc" />
    <path
       style="color:#000000;fill:#b59771;fill-opacity:1;fill-rule:nonzero;stroke:#685d4c;stroke-width:0.85000002;stroke-linecap:butt;stroke-linejoin:miter;stroke-miterlimit:4;stroke-opacity:1;stroke-dasharray:none;stroke-dashoffset:0;marker:none;visibility:visible;display:inline;overflow:visible;enable-background:accumulate"
       d="m 0.68378189,20.31211 c 0.17455181,-0.644184 0.31288293,-1.308869 0.71089951,-1.863329 0.4663051,-0.759897 0.7800205,-1.58965 1.2229138,-2.36094 0.424226,-0.870673 1.0519969,-1.616814 1.5846857,-2.421645 0.5976798,-0.735342 1.2394232,-1.439608 1.9130248,-2.105351 0.486771,-0.487512 0.9021887,-1.278656 1.7207609,-1.081459 0.7267049,0.137663 1.4388183,0.181289 2.1752964,0.247495 0.90559,0.178246 1.875554,0.418032 2.534343,1.107444 3.185021,3.037924 3.690406,6.285268 4.480435,10.263763"
       id="path3768"
       inkscape:connector-curvature="0"
       sodipodi:nodetypes="ccccccccc" />
    <path
       style="fill:#b59771;fill-opacity:1;stroke:#685d4c;stroke-width:0.85000002;stroke-linecap:butt;stroke-linejoin:miter;stroke-miterlimit:4;stroke-opacity:1;stroke-dasharray:none"
       d="M 4.0845739,23.867284 C 3.9084498,22.902211 5.2373508,22.462018 5.56013,21.603611 c 1.0580209,-1.919047 2.4314051,-3.654723 3.3598253,-5.645344 1.2509777,-1.558864 1.4626287,-3.291529 2.6443497,-4.884982 0.435711,-0.930911 1.019048,-1.7979126 1.754488,-2.5087741 0.809898,-0.5523208 1.984585,-0.8655162 2.854234,-0.3407979 0.986261,0.3567385 1.903432,1.0218155 2.568794,1.802789 0.886052,0.659105 1.440095,1.685547 2.191025,2.500646 0.674133,0.829672 1.404938,1.683974 1.858923,2.643024 0.327103,0.856228 0.86501,1.660404 1.468088,2.336719 0.911561,1.29999 1.907903,2.08453 2.979826,3.07565 0.585158,0.593885 0.771089,1.480753 1.02176,2.092575 0.0973,0.247765 0.08402,0.638961 0.22665,0.785089"
       id="path2995"
       inkscape:connector-curvature="0"
       sodipodi:nodetypes="ccccccccccccc" />
  </g>
</svg>
